<svg width="48" height="23" viewBox="0 0 48 23" fill="none" xmlns="http://www.w3.org/2000/svg">
<path d="M14.8 2H9.2C8.88174 2 8.57652 2.11959 8.35147 2.33247C8.12643 2.54535 8 2.83408 8 3.13513V19.7838C8 19.9329 8.03104 20.0805 8.09134 20.2182C8.15165 20.3559 8.24004 20.481 8.35147 20.5864C8.4629 20.6919 8.59519 20.7755 8.74078 20.8325C8.88637 20.8896 9.04241 20.9189 9.2 20.9189H14.8C14.9576 20.9189 15.1136 20.8896 15.2592 20.8325C15.4048 20.7755 15.5371 20.6919 15.6485 20.5864C15.76 20.481 15.8483 20.3559 15.9087 20.2182C15.969 20.0805 16 19.9329 16 19.7838V3.13513C16 2.83408 15.8736 2.54535 15.6485 2.33247C15.4235 2.11959 15.1183 2 14.8 2V2ZM38.8 2H33.2C32.8817 2 32.5765 2.11959 32.3515 2.33247C32.1264 2.54535 32 2.83408 32 3.13513V19.7838C32 19.9329 32.031 20.0805 32.0913 20.2182C32.1516 20.3559 32.24 20.481 32.3515 20.5864C32.4629 20.6919 32.5952 20.7755 32.7408 20.8325C32.8864 20.8896 33.0424 20.9189 33.2 20.9189H38.8C38.9576 20.9189 39.1136 20.8896 39.2592 20.8325C39.4048 20.7755 39.5371 20.6919 39.6485 20.5864C39.76 20.481 39.8484 20.3559 39.9087 20.2182C39.969 20.0805 40 19.9329 40 19.7838V3.13513C40 2.83408 39.8736 2.54535 39.6485 2.33247C39.4235 2.11959 39.1183 2 38.8 2V2Z" stroke="#D6312E" stroke-width="3" stroke-linecap="round" stroke-linejoin="round"/>
<path d="M16 11.4595H32M2 16V6.91892C2 6.61786 2.12643 6.32913 2.35147 6.11626C2.57652 5.90338 2.88174 5.78378 3.2 5.78378H6.8C7.11826 5.78378 7.42348 5.90338 7.64853 6.11626C7.87357 6.32913 8 6.61786 8 6.91892V16C8 16.3011 7.87357 16.5898 7.64853 16.8027C7.42348 17.0155 7.11826 17.1351 6.8 17.1351H3.2C2.88174 17.1351 2.57652 17.0155 2.35147 16.8027C2.12643 16.5898 2 16.3011 2 16V16ZM46 16V6.91892C46 6.61786 45.8736 6.32913 45.6485 6.11626C45.4235 5.90338 45.1183 5.78378 44.8 5.78378H41.2C40.8817 5.78378 40.5765 5.90338 40.3515 6.11626C40.1264 6.32913 40 6.61786 40 6.91892V16C40 16.3011 40.1264 16.5898 40.3515 16.8027C40.5765 17.0155 40.8817 17.1351 41.2 17.1351H44.8C45.1183 17.1351 45.4235 17.0155 45.6485 16.8027C45.8736 16.5898 46 16.3011 46 16V16Z" stroke="#D6312E" stroke-width="3" stroke-linecap="round" stroke-linejoin="round"/>
</svg>
