<svg width="48" height="22" viewBox="0 0 48 22" fill="none" xmlns="http://www.w3.org/2000/svg">
<path d="M14.8 1.54053H9.2C8.88174 1.54053 8.57652 1.66012 8.35147 1.873C8.12643 2.08588 8 2.37461 8 2.67566V19.3243C8 19.4734 8.03104 19.621 8.09134 19.7587C8.15165 19.8964 8.24004 20.0216 8.35147 20.127C8.4629 20.2324 8.59519 20.316 8.74078 20.373C8.88637 20.4301 9.04241 20.4594 9.2 20.4594H14.8C14.9576 20.4594 15.1136 20.4301 15.2592 20.373C15.4048 20.316 15.5371 20.2324 15.6485 20.127C15.76 20.0216 15.8483 19.8964 15.9087 19.7587C15.969 19.621 16 19.4734 16 19.3243V2.67566C16 2.37461 15.8736 2.08588 15.6485 1.873C15.4235 1.66012 15.1183 1.54053 14.8 1.54053V1.54053ZM38.8 1.54053H33.2C32.8817 1.54053 32.5765 1.66012 32.3515 1.873C32.1264 2.08588 32 2.37461 32 2.67566V19.3243C32 19.4734 32.031 19.621 32.0913 19.7587C32.1516 19.8964 32.24 20.0216 32.3515 20.127C32.4629 20.2324 32.5952 20.316 32.7408 20.373C32.8864 20.4301 33.0424 20.4594 33.2 20.4594H38.8C38.9576 20.4594 39.1136 20.4301 39.2592 20.373C39.4048 20.316 39.5371 20.2324 39.6485 20.127C39.76 20.0216 39.8484 19.8964 39.9087 19.7587C39.969 19.621 40 19.4734 40 19.3243V2.67566C40 2.37461 39.8736 2.08588 39.6485 1.873C39.4235 1.66012 39.1183 1.54053 38.8 1.54053V1.54053Z" stroke="#313638" stroke-width="3" stroke-linecap="round" stroke-linejoin="round"/>
<path d="M16 11H32M2 15.5405V6.45945C2 6.15839 2.12643 5.86966 2.35147 5.65678C2.57652 5.4439 2.88174 5.32431 3.2 5.32431H6.8C7.11826 5.32431 7.42348 5.4439 7.64853 5.65678C7.87357 5.86966 8 6.15839 8 6.45945V15.5405C8 15.8416 7.87357 16.1303 7.64853 16.3432C7.42348 16.5561 7.11826 16.6757 6.8 16.6757H3.2C2.88174 16.6757 2.57652 16.5561 2.35147 16.3432C2.12643 16.1303 2 15.8416 2 15.5405V15.5405ZM46 15.5405V6.45945C46 6.15839 45.8736 5.86966 45.6485 5.65678C45.4235 5.4439 45.1183 5.32431 44.8 5.32431H41.2C40.8817 5.32431 40.5765 5.4439 40.3515 5.65678C40.1264 5.86966 40 6.15839 40 6.45945V15.5405C40 15.8416 40.1264 16.1303 40.3515 16.3432C40.5765 16.5561 40.8817 16.6757 41.2 16.6757H44.8C45.1183 16.6757 45.4235 16.5561 45.6485 16.3432C45.8736 16.1303 46 15.8416 46 15.5405V15.5405Z" stroke="#313638" stroke-width="3" stroke-linecap="round" stroke-linejoin="round"/>
</svg>
