<svg width="218" height="102" viewBox="0 0 218 102" fill="none" xmlns="http://www.w3.org/2000/svg">
<path d="M89.6667 4H78C77.337 4 76.7011 4.26339 76.2322 4.73223C75.7634 5.20107 75.5 5.83696 75.5 6.5V43.1667C75.5 43.495 75.5647 43.8201 75.6903 44.1234C75.8159 44.4267 76.0001 44.7023 76.2322 44.9344C76.4644 45.1666 76.74 45.3507 77.0433 45.4764C77.3466 45.602 77.6717 45.6667 78 45.6667H89.6667C89.995 45.6667 90.3201 45.602 90.6234 45.4764C90.9267 45.3507 91.2023 45.1666 91.4344 44.9344C91.6666 44.7023 91.8507 44.4267 91.9764 44.1234C92.102 43.8201 92.1667 43.495 92.1667 43.1667V6.5C92.1667 5.83696 91.9033 5.20107 91.4344 4.73223C90.9656 4.26339 90.3297 4 89.6667 4ZM139.667 4H128C127.337 4 126.701 4.26339 126.232 4.73223C125.763 5.20107 125.5 5.83696 125.5 6.5V43.1667C125.5 43.495 125.565 43.8201 125.69 44.1234C125.816 44.4267 126 44.7023 126.232 44.9344C126.464 45.1666 126.74 45.3507 127.043 45.4764C127.347 45.602 127.672 45.6667 128 45.6667H139.667C139.995 45.6667 140.32 45.602 140.623 45.4764C140.927 45.3507 141.202 45.1666 141.434 44.9344C141.667 44.7023 141.851 44.4267 141.976 44.1234C142.102 43.8201 142.167 43.495 142.167 43.1667V6.5C142.167 5.83696 141.903 5.20107 141.434 4.73223C140.966 4.26339 140.33 4 139.667 4Z" stroke="#D6312E" stroke-width="6.25" stroke-linecap="round" stroke-linejoin="round"/>
<path d="M92.1667 24.8333H125.5M63 34.8333V14.8333C63 14.1703 63.2634 13.5344 63.7322 13.0656C64.2011 12.5967 64.837 12.3333 65.5 12.3333H73C73.663 12.3333 74.2989 12.5967 74.7678 13.0656C75.2366 13.5344 75.5 14.1703 75.5 14.8333V34.8333C75.5 35.4964 75.2366 36.1323 74.7678 36.6011C74.2989 37.07 73.663 37.3333 73 37.3333H65.5C64.837 37.3333 64.2011 37.07 63.7322 36.6011C63.2634 36.1323 63 35.4964 63 34.8333V34.8333ZM154.667 34.8333V14.8333C154.667 14.1703 154.403 13.5344 153.934 13.0656C153.466 12.5967 152.83 12.3333 152.167 12.3333H144.667C144.004 12.3333 143.368 12.5967 142.899 13.0656C142.43 13.5344 142.167 14.1703 142.167 14.8333V34.8333C142.167 35.4964 142.43 36.1323 142.899 36.6011C143.368 37.07 144.004 37.3333 144.667 37.3333H152.167C152.83 37.3333 153.466 37.07 153.934 36.6011C154.403 36.1323 154.667 35.4964 154.667 34.8333V34.8333Z" stroke="#D6312E" stroke-width="6.25" stroke-linecap="round" stroke-linejoin="round"/>
<path d="M9.056 82.488L0.8 68.632H6.848L11.904 77.304L17.184 68.632H23.2L14.72 82.488V91H9.056V82.488ZM28.9908 91.48C27.0921 91.48 25.4281 91.1387 23.9988 90.456C22.5694 89.752 21.4601 88.792 20.6708 87.576C19.9028 86.3387 19.5188 84.92 19.5188 83.32C19.5188 81.72 19.9028 80.312 20.6708 79.096C21.4601 77.8587 22.5694 76.8987 23.9988 76.216C25.4281 75.512 27.0921 75.16 28.9908 75.16C30.8894 75.16 32.5534 75.512 33.9828 76.216C35.4121 76.8987 36.5108 77.8587 37.2788 79.096C38.0681 80.312 38.4628 81.72 38.4628 83.32C38.4628 84.92 38.0681 86.3387 37.2788 87.576C36.5108 88.792 35.4121 89.752 33.9828 90.456C32.5534 91.1387 30.8894 91.48 28.9908 91.48ZM28.9908 87.096C30.1214 87.096 31.0174 86.7653 31.6788 86.104C32.3614 85.4213 32.7028 84.4933 32.7028 83.32C32.7028 82.1467 32.3614 81.2293 31.6788 80.568C31.0174 79.8853 30.1214 79.544 28.9908 79.544C27.8601 79.544 26.9534 79.8853 26.2708 80.568C25.6094 81.2293 25.2788 82.1467 25.2788 83.32C25.2788 84.4933 25.6094 85.4213 26.2708 86.104C26.9534 86.7653 27.8601 87.096 28.9908 87.096ZM46.866 91.48C44.754 91.48 43.1647 90.8933 42.098 89.72C41.0527 88.5467 40.53 87 40.53 85.08V75.64H46.162V84.44C46.162 86.2107 46.962 87.096 48.562 87.096C49.2873 87.096 49.9487 86.9253 50.546 86.584C51.1433 86.2427 51.634 85.7413 52.018 85.08V75.64H57.65V91H52.21V89.336C51.5487 90.04 50.7487 90.5733 49.81 90.936C48.8713 91.2987 47.89 91.48 46.866 91.48ZM60.5338 75.64H65.9738V77.56C66.5711 76.8773 67.4138 76.3547 68.5017 75.992C69.5898 75.608 70.7951 75.416 72.1178 75.416V79.736C70.7098 79.736 69.4618 79.9387 68.3738 80.344C67.3071 80.7493 66.5711 81.3573 66.1658 82.168V91H60.5338V75.64ZM83.9563 68.632H89.7803L93.5243 81.88L97.1403 68.632H101.172L104.564 81.912L108.276 68.632H114.1L107.924 91H102.708L99.0283 78.008L95.3803 91H90.1323L83.9563 68.632ZM122.772 91.48C120.873 91.48 119.209 91.1387 117.78 90.456C116.351 89.752 115.241 88.792 114.452 87.576C113.684 86.3387 113.3 84.92 113.3 83.32C113.3 81.72 113.684 80.312 114.452 79.096C115.241 77.8587 116.351 76.8987 117.78 76.216C119.209 75.512 120.873 75.16 122.772 75.16C124.671 75.16 126.335 75.512 127.764 76.216C129.193 76.8987 130.292 77.8587 131.06 79.096C131.849 80.312 132.244 81.72 132.244 83.32C132.244 84.92 131.849 86.3387 131.06 87.576C130.292 88.792 129.193 89.752 127.764 90.456C126.335 91.1387 124.671 91.48 122.772 91.48ZM122.772 87.096C123.903 87.096 124.799 86.7653 125.46 86.104C126.143 85.4213 126.484 84.4933 126.484 83.32C126.484 82.1467 126.143 81.2293 125.46 80.568C124.799 79.8853 123.903 79.544 122.772 79.544C121.641 79.544 120.735 79.8853 120.052 80.568C119.391 81.2293 119.06 82.1467 119.06 83.32C119.06 84.4933 119.391 85.4213 120.052 86.104C120.735 86.7653 121.641 87.096 122.772 87.096ZM134.471 75.64H139.911V77.56C140.509 76.8773 141.351 76.3547 142.439 75.992C143.527 75.608 144.733 75.416 146.055 75.416V79.736C144.647 79.736 143.399 79.9387 142.311 80.344C141.245 80.7493 140.509 81.3573 140.103 82.168V91H134.471V75.64ZM147.659 67.352H153.291V81.816L158.347 75.64H164.811L158.699 83.064L165.643 91H159.179L153.291 84.248V91H147.659V67.352ZM174.303 91.48C172.405 91.48 170.741 91.1387 169.311 90.456C167.882 89.752 166.773 88.792 165.983 87.576C165.215 86.3387 164.831 84.92 164.831 83.32C164.831 81.72 165.215 80.312 165.983 79.096C166.773 77.8587 167.882 76.8987 169.311 76.216C170.741 75.512 172.405 75.16 174.303 75.16C176.202 75.16 177.866 75.512 179.295 76.216C180.725 76.8987 181.823 77.8587 182.591 79.096C183.381 80.312 183.775 81.72 183.775 83.32C183.775 84.92 183.381 86.3387 182.591 87.576C181.823 88.792 180.725 89.752 179.295 90.456C177.866 91.1387 176.202 91.48 174.303 91.48ZM174.303 87.096C175.434 87.096 176.33 86.7653 176.991 86.104C177.674 85.4213 178.015 84.4933 178.015 83.32C178.015 82.1467 177.674 81.2293 176.991 80.568C176.33 79.8853 175.434 79.544 174.303 79.544C173.173 79.544 172.266 79.8853 171.583 80.568C170.922 81.2293 170.591 82.1467 170.591 83.32C170.591 84.4933 170.922 85.4213 171.583 86.104C172.266 86.7653 173.173 87.096 174.303 87.096ZM192.179 91.48C190.067 91.48 188.477 90.8933 187.411 89.72C186.365 88.5467 185.843 87 185.843 85.08V75.64H191.475V84.44C191.475 86.2107 192.275 87.096 193.875 87.096C194.6 87.096 195.261 86.9253 195.859 86.584C196.456 86.2427 196.947 85.7413 197.331 85.08V75.64H202.963V91H197.523V89.336C196.861 90.04 196.061 90.5733 195.123 90.936C194.184 91.2987 193.203 91.48 192.179 91.48ZM212.502 91.48C210.604 91.48 209.164 90.9573 208.182 89.912C207.222 88.8453 206.742 87.3947 206.742 85.56V79.544H204.566V75.64H206.742V71.032H212.374V75.64H215.894V79.544H212.374V84.792C212.374 85.624 212.524 86.2213 212.822 86.584C213.142 86.9467 213.697 87.128 214.486 87.128C215.19 87.128 215.894 86.936 216.598 86.552V90.744C216.044 91 215.446 91.1813 214.806 91.288C214.188 91.416 213.42 91.48 212.502 91.48Z" fill="#313638"/>
</svg>
