<svg xmlns="http://www.w3.org/2000/svg" viewBox="-80 120 900 300"><g id="freepik--background-simple--inject-54"><path d="M706.09,444.37S750.9,336.2,679.82,204.86,472.76,47.25,372.32,91.29s-151.43,67.21-231,89.62S26.19,288.3,31.6,354s59.49,90.4,59.49,90.4Z" style="fill:#D6312E"></path><path d="M706.09,444.37S750.9,336.2,679.82,204.86,472.76,47.25,372.32,91.29s-151.43,67.21-231,89.62S26.19,288.3,31.6,354s59.49,90.4,59.49,90.4Z" style="fill:#fff;opacity:0.7000000000000001"></path></g><g id="freepik--Floor--inject-54"><line x1="727.4" y1="444.37" x2="20.97" y2="444.37" style="fill:none;stroke:#263238;stroke-linecap:round;stroke-linejoin:round"></line></g><g id="freepik--Clouds--inject-54"><path d="M516.28,84.51s-3.87-18.07-17.42-22.59-16.79,4.52-20.66,9.68-9.68-2.58-18.07,0S455,81.28,449.81,83.86s-14.2-3.22-20,1.29-7.1,8.39-7.1,8.39H545.32S526,75.47,516.28,84.51Z" style="fill:none;stroke:#263238;stroke-miterlimit:10"></path><path d="M282.27,72.55s-2-9.22-8.9-11.53S264.8,63.33,262.82,66s-4.94-1.32-9.23,0-2.63,5-5.27,6.26-7.25-1.64-10.22.66-3.62,4.29-3.62,4.29H297.1S287.21,67.94,282.27,72.55Z" style="fill:none;stroke:#263238;stroke-miterlimit:10"></path><path d="M138.65,109.82s-2-9.23-8.9-11.54-8.57,2.31-10.55,5-4.94-1.32-9.23,0-2.63,4.94-5.27,6.26-7.25-1.65-10.22.66-3.62,4.28-3.62,4.28h62.62S143.59,105.2,138.65,109.82Z" style="fill:none;stroke:#263238;stroke-miterlimit:10"></path><path d="M695.16,109.82s-2-9.23-8.9-11.54-8.57,2.31-10.55,5-4.94-1.32-9.23,0-2.63,4.94-5.27,6.26-7.25-1.65-10.22.66-3.62,4.28-3.62,4.28H710S700.1,105.2,695.16,109.82Z" style="fill:none;stroke:#263238;stroke-miterlimit:10"></path></g><g id="freepik--Buildings--inject-54"><polyline points="33.8 214.86 101.21 214.86 101.21 150.29 145.03 150.29 145.03 159.74 163.57 159.74 163.57 141.63 246.99 141.63 246.99 155.01 260.47 155.01 260.47 119.58 402.02 119.58 402.02 192.81 427.3 192.81 427.3 211.71 461.85 211.71 461.85 183.36 589.09 183.36 589.09 201.47 627.85 201.47 627.85 139.27 717.16 139.27" style="fill:none;stroke:#263238;stroke-linecap:round;stroke-linejoin:round"></polyline></g><g id="freepik--Window--inject-54"><polyline points="58.26 31.03 58.26 444.37 67.3 444.37 67.3 31.03" style="fill:#263238;stroke:#263238;stroke-linecap:round;stroke-linejoin:round"></polyline><polyline points="226.69 31.03 226.69 444.37 217.65 444.37 217.65 31.03" style="fill:#263238;stroke:#263238;stroke-linecap:round;stroke-linejoin:round"></polyline><polyline points="377.04 31.03 377.04 444.37 386.07 444.37 386.07 31.03" style="fill:#263238;stroke:#263238;stroke-linecap:round;stroke-linejoin:round"></polyline><polyline points="536.43 31.03 536.43 444.37 545.46 444.37 545.46 31.03" style="fill:#263238;stroke:#263238;stroke-linecap:round;stroke-linejoin:round"></polyline><polyline points="695.81 31.03 695.81 444.37 704.85 444.37 704.85 31.03" style="fill:#263238;stroke:#263238;stroke-linecap:round;stroke-linejoin:round"></polyline><line x1="120.53" y1="252.24" x2="110.71" y2="262.73" style="fill:none;stroke:#263238;stroke-linecap:round;stroke-linejoin:round"></line><line x1="192.75" y1="175.09" x2="124.4" y2="248.11" style="fill:none;stroke:#263238;stroke-linecap:round;stroke-linejoin:round"></line><line x1="175.2" y1="213.97" x2="172.34" y2="217.02" style="fill:none;stroke:#263238;stroke-linecap:round;stroke-linejoin:round"></line><line x1="188.04" y1="200.25" x2="178.02" y2="210.96" style="fill:none;stroke:#263238;stroke-linecap:round;stroke-linejoin:round"></line><line x1="127.59" y1="233.8" x2="109.14" y2="253.51" style="fill:none;stroke:#263238;stroke-linecap:round;stroke-linejoin:round"></line><line x1="279.54" y1="128" x2="269.72" y2="138.49" style="fill:none;stroke:#263238;stroke-linecap:round;stroke-linejoin:round"></line><line x1="351.77" y1="50.85" x2="283.42" y2="123.86" style="fill:none;stroke:#263238;stroke-linecap:round;stroke-linejoin:round"></line><line x1="334.22" y1="89.72" x2="331.35" y2="92.78" style="fill:none;stroke:#263238;stroke-linecap:round;stroke-linejoin:round"></line><line x1="347.06" y1="76.01" x2="337.03" y2="86.71" style="fill:none;stroke:#263238;stroke-linecap:round;stroke-linejoin:round"></line><line x1="286.6" y1="109.55" x2="268.15" y2="129.26" style="fill:none;stroke:#263238;stroke-linecap:round;stroke-linejoin:round"></line><line x1="431.29" y1="268.75" x2="421.47" y2="279.23" style="fill:none;stroke:#263238;stroke-linecap:round;stroke-linejoin:round"></line><line x1="503.51" y1="191.59" x2="435.16" y2="264.61" style="fill:none;stroke:#263238;stroke-linecap:round;stroke-linejoin:round"></line><line x1="485.96" y1="230.47" x2="483.1" y2="233.53" style="fill:none;stroke:#263238;stroke-linecap:round;stroke-linejoin:round"></line><line x1="498.8" y1="216.75" x2="488.78" y2="227.46" style="fill:none;stroke:#263238;stroke-linecap:round;stroke-linejoin:round"></line><line x1="438.35" y1="250.3" x2="419.9" y2="270.01" style="fill:none;stroke:#263238;stroke-linecap:round;stroke-linejoin:round"></line><line x1="563.95" y1="144.5" x2="554.13" y2="154.99" style="fill:none;stroke:#263238;stroke-linecap:round;stroke-linejoin:round"></line><line x1="636.18" y1="67.35" x2="567.83" y2="140.36" style="fill:none;stroke:#263238;stroke-linecap:round;stroke-linejoin:round"></line><line x1="618.63" y1="106.22" x2="615.76" y2="109.28" style="fill:none;stroke:#263238;stroke-linecap:round;stroke-linejoin:round"></line><line x1="631.46" y1="92.51" x2="621.44" y2="103.21" style="fill:none;stroke:#263238;stroke-linecap:round;stroke-linejoin:round"></line><line x1="571.01" y1="126.05" x2="552.56" y2="145.76" style="fill:none;stroke:#263238;stroke-linecap:round;stroke-linejoin:round"></line></g><g id="freepik--Weights--inject-54"><rect x="532.41" y="435.29" width="8.32" height="9.07" style="fill:#363636;stroke:#263238;stroke-linecap:round;stroke-linejoin:round"></rect><rect x="538.21" y="435.29" width="8.32" height="9.07" style="fill:#949494;stroke:#263238;stroke-linecap:round;stroke-linejoin:round"></rect><rect x="608.15" y="435.29" width="8.32" height="9.07" style="fill:#363636;stroke:#263238;stroke-linecap:round;stroke-linejoin:round"></rect><rect x="613.95" y="435.29" width="8.32" height="9.07" style="fill:#949494;stroke:#263238;stroke-linecap:round;stroke-linejoin:round"></rect><rect x="526.6" y="427.07" width="91.69" height="10" style="fill:#363636;stroke:#263238;stroke-linecap:round;stroke-linejoin:round"></rect><rect x="532.4" y="427.07" width="91.69" height="10" style="fill:#949494;stroke:#263238;stroke-linecap:round;stroke-linejoin:round"></rect><path d="M703,272.36H590.24a3.37,3.37,0,1,1,0-6.73H703a3.37,3.37,0,1,1,0,6.73Z" style="fill:#fff;stroke:#263238;stroke-linecap:round;stroke-linejoin:round"></path><path d="M703,321.34H561.41a3.36,3.36,0,1,1,0-6.72H703a3.36,3.36,0,1,1,0,6.72Z" style="fill:#fff;stroke:#263238;stroke-linecap:round;stroke-linejoin:round"></path><path d="M703,368H561.41a3.36,3.36,0,1,1,0-6.72H703a3.36,3.36,0,1,1,0,6.72Z" style="fill:#fff;stroke:#263238;stroke-linecap:round;stroke-linejoin:round"></path><path d="M703,414.56H561.41a3.37,3.37,0,1,1,0-6.73H703a3.37,3.37,0,1,1,0,6.73Z" style="fill:#fff;stroke:#263238;stroke-linecap:round;stroke-linejoin:round"></path><polygon points="623 427.22 614.44 427.22 630.5 252.67 639.06 252.67 623 427.22" style="fill:#fff;stroke:#263238;stroke-linecap:round;stroke-linejoin:round"></polygon><polygon points="633.46 427.22 620.62 427.22 636.68 252.67 649.52 252.67 633.46 427.22" style="fill:#fff;stroke:#263238;stroke-linecap:round;stroke-linejoin:round"></polygon><polygon points="676.63 427.22 691.85 427.22 675.79 252.67 660.57 252.67 676.63 427.22" style="fill:#fff;stroke:#263238;stroke-linecap:round;stroke-linejoin:round"></polygon><polygon points="672.83 427.22 680.91 427.22 664.85 252.67 656.76 252.67 672.83 427.22" style="fill:#fff;stroke:#263238;stroke-linecap:round;stroke-linejoin:round"></polygon><polygon points="545 427.22 536.44 427.22 552.5 252.67 561.06 252.67 545 427.22" style="fill:#fff;stroke:#263238;stroke-linecap:round;stroke-linejoin:round"></polygon><polygon points="555.46 427.22 542.62 427.22 558.68 252.67 571.52 252.67 555.46 427.22" style="fill:#fff;stroke:#263238;stroke-linecap:round;stroke-linejoin:round"></polygon><polygon points="599.17 427.22 613.67 427.22 597.61 252.67 583.11 252.67 599.17 427.22" style="fill:#fff;stroke:#263238;stroke-linecap:round;stroke-linejoin:round"></polygon><polygon points="594.65 427.22 600.96 427.22 584.9 252.67 578.59 252.67 594.65 427.22" style="fill:#fff;stroke:#263238;stroke-linecap:round;stroke-linejoin:round"></polygon><circle cx="515.97" cy="268.99" r="11.88" style="fill:#363636;stroke:#263238;stroke-linecap:round;stroke-linejoin:round"></circle><circle cx="519.31" cy="268.99" r="11.88" style="fill:#949494;stroke:#263238;stroke-linecap:round;stroke-linejoin:round"></circle><circle cx="526.33" cy="268.99" r="17.29" transform="matrix(0.16, -0.99, 0.99, 0.16, 176.92, 745.74)" style="fill:#363636;stroke:#263238;stroke-linecap:round;stroke-linejoin:round"></circle><circle cx="531.19" cy="268.99" r="17.29" transform="translate(160.12 734.64) rotate(-78.31)" style="fill:#949494;stroke:#263238;stroke-linecap:round;stroke-linejoin:round"></circle><path d="M645.34,272.36H532.58a3.37,3.37,0,1,1,0-6.73H645.34a3.37,3.37,0,1,1,0,6.73Z" style="fill:#fff;stroke:#263238;stroke-linecap:round;stroke-linejoin:round"></path><path d="M636.65,272.93l-6.72-7a.79.79,0,0,0-1.36.54v8.68l6.24,9.17" style="fill:#fff;stroke:#263238;stroke-linecap:round;stroke-linejoin:round"></path><circle cx="652.37" cy="268.99" r="17.29" transform="translate(260.83 856.05) rotate(-78.71)" style="fill:#363636;stroke:#263238;stroke-linecap:round;stroke-linejoin:round"></circle><circle cx="657.23" cy="268.99" r="17.29" transform="translate(278.23 869.55) rotate(-80)" style="fill:#949494;stroke:#263238;stroke-linecap:round;stroke-linejoin:round"></circle><circle cx="657.23" cy="268.99" r="11.88" style="fill:#363636;stroke:#263238;stroke-linecap:round;stroke-linejoin:round"></circle><circle cx="660.57" cy="268.99" r="11.88" style="fill:#949494;stroke:#263238;stroke-linecap:round;stroke-linejoin:round"></circle><path d="M678.59,272.36h-18a3.37,3.37,0,0,1,0-6.73h18a3.37,3.37,0,0,1,0,6.73Z" style="fill:#fff;stroke:#263238;stroke-linecap:round;stroke-linejoin:round"></path><circle cx="512.23" cy="314.97" r="11.88" style="fill:#363636;stroke:#263238;stroke-linecap:round;stroke-linejoin:round"></circle><circle cx="515.57" cy="314.97" r="11.88" style="fill:#949494;stroke:#263238;stroke-linecap:round;stroke-linejoin:round"></circle><circle cx="522.59" cy="314.97" r="17.29" style="fill:#363636;stroke:#263238;stroke-linecap:round;stroke-linejoin:round"></circle><circle cx="527.45" cy="314.97" r="17.29" style="fill:#949494;stroke:#263238;stroke-linecap:round;stroke-linejoin:round"></circle><path d="M641.6,318.34H528.84a3.37,3.37,0,1,1,0-6.73H641.6a3.37,3.37,0,1,1,0,6.73Z" style="fill:#fff;stroke:#263238;stroke-linecap:round;stroke-linejoin:round"></path><path d="M633.34,318.79l-6.71-7a.79.79,0,0,0-1.36.54V321l6.24,9.18" style="fill:#fff;stroke:#263238;stroke-linecap:round;stroke-linejoin:round"></path><circle cx="648.62" cy="314.97" r="17.29" style="fill:#363636;stroke:#263238;stroke-linecap:round;stroke-linejoin:round"></circle><circle cx="653.49" cy="314.97" r="17.29" style="fill:#949494;stroke:#263238;stroke-linecap:round;stroke-linejoin:round"></circle><circle cx="653.49" cy="314.97" r="11.88" style="fill:#363636;stroke:#263238;stroke-linecap:round;stroke-linejoin:round"></circle><circle cx="656.83" cy="314.97" r="11.88" style="fill:#949494;stroke:#263238;stroke-linecap:round;stroke-linejoin:round"></circle><path d="M674.85,318.34h-18a3.37,3.37,0,0,1,0-6.73h18a3.37,3.37,0,0,1,0,6.73Z" style="fill:#fff;stroke:#263238;stroke-linecap:round;stroke-linejoin:round"></path><circle cx="508.49" cy="360.95" r="11.88" style="fill:#363636;stroke:#263238;stroke-linecap:round;stroke-linejoin:round"></circle><circle cx="511.83" cy="360.95" r="11.88" style="fill:#949494;stroke:#263238;stroke-linecap:round;stroke-linejoin:round"></circle><circle cx="518.85" cy="360.95" r="17.29" transform="translate(-98.05 223.36) rotate(-22.25)" style="fill:#363636;stroke:#263238;stroke-linecap:round;stroke-linejoin:round"></circle><circle cx="523.71" cy="360.95" r="17.29" transform="translate(-101.84 476.04) rotate(-45)" style="fill:#949494;stroke:#263238;stroke-linecap:round;stroke-linejoin:round"></circle><path d="M637.86,364.32H525.1a3.37,3.37,0,1,1,0-6.73H637.86a3.37,3.37,0,1,1,0,6.73Z" style="fill:#fff;stroke:#263238;stroke-linecap:round;stroke-linejoin:round"></path><path d="M629.67,365.75l-6.71-7a.79.79,0,0,0-1.36.54V368l6.24,9.18" style="fill:#fff;stroke:#263238;stroke-linecap:round;stroke-linejoin:round"></path><circle cx="644.88" cy="360.95" r="17.29" transform="translate(-66.35 561.72) rotate(-45)" style="fill:#363636;stroke:#263238;stroke-linecap:round;stroke-linejoin:round"></circle><circle cx="649.75" cy="360.95" r="17.29" transform="translate(-88.3 272.93) rotate(-22.25)" style="fill:#949494;stroke:#263238;stroke-linecap:round;stroke-linejoin:round"></circle><circle cx="649.75" cy="360.95" r="11.88" style="fill:#363636;stroke:#263238;stroke-linecap:round;stroke-linejoin:round"></circle><circle cx="653.09" cy="360.95" r="11.88" style="fill:#949494;stroke:#263238;stroke-linecap:round;stroke-linejoin:round"></circle><path d="M671.11,364.32h-18a3.37,3.37,0,1,1,0-6.73h18a3.37,3.37,0,0,1,0,6.73Z" style="fill:#fff;stroke:#263238;stroke-linecap:round;stroke-linejoin:round"></path><circle cx="504.75" cy="406.94" r="11.88" transform="translate(-139.91 476.1) rotate(-45)" style="fill:#363636;stroke:#263238;stroke-linecap:round;stroke-linejoin:round"></circle><circle cx="508.09" cy="406.94" r="11.88" transform="translate(24.76 842.99) rotate(-80.75)" style="fill:#949494;stroke:#263238;stroke-linecap:round;stroke-linejoin:round"></circle><circle cx="515.11" cy="406.94" r="17.29" transform="translate(-115.74 225.37) rotate(-22.25)" style="fill:#363636;stroke:#263238;stroke-linecap:round;stroke-linejoin:round"></circle><circle cx="519.97" cy="406.94" r="17.29" transform="translate(-135.45 486.86) rotate(-45)" style="fill:#949494;stroke:#263238;stroke-linecap:round;stroke-linejoin:round"></circle><path d="M634.12,410.3H521.36a3.37,3.37,0,1,1,0-6.73H634.12a3.37,3.37,0,1,1,0,6.73Z" style="fill:#fff;stroke:#263238;stroke-linecap:round;stroke-linejoin:round"></path><path d="M625.27,410.88l-6.72-7a.78.78,0,0,0-1.35.54v8.68l6.24,9.17" style="fill:#fff;stroke:#263238;stroke-linecap:round;stroke-linejoin:round"></path><circle cx="641.14" cy="406.94" r="17.29" transform="translate(96.86 936.48) rotate(-76.62)" style="fill:#363636;stroke:#263238;stroke-linecap:round;stroke-linejoin:round"></circle><circle cx="646.01" cy="406.94" r="17.29" transform="translate(-105.99 274.94) rotate(-22.25)" style="fill:#949494;stroke:#263238;stroke-linecap:round;stroke-linejoin:round"></circle><circle cx="646.01" cy="406.94" r="11.88" transform="translate(140.5 979.11) rotate(-80.75)" style="fill:#363636;stroke:#263238;stroke-linecap:round;stroke-linejoin:round"></circle><circle cx="649.35" cy="406.94" r="11.88" transform="translate(103.46 944.76) rotate(-76.65)" style="fill:#949494;stroke:#263238;stroke-linecap:round;stroke-linejoin:round"></circle><path d="M667.37,410.3h-18a3.37,3.37,0,1,1,0-6.73h18a3.37,3.37,0,0,1,0,6.73Z" style="fill:#fff;stroke:#263238;stroke-linecap:round;stroke-linejoin:round"></path><rect x="612.35" y="435.29" width="8.32" height="9.07" style="fill:#949494;stroke:#263238;stroke-linecap:round;stroke-linejoin:round"></rect><rect x="618.15" y="435.29" width="8.32" height="9.07" style="fill:#fff;stroke:#263238;stroke-linecap:round;stroke-linejoin:round"></rect><rect x="688.09" y="435.29" width="8.32" height="9.07" style="fill:#363636;stroke:#263238;stroke-linecap:round;stroke-linejoin:round"></rect><rect x="693.89" y="435.29" width="8.32" height="9.07" style="fill:#949494;stroke:#263238;stroke-linecap:round;stroke-linejoin:round"></rect><rect x="606.54" y="427.07" width="91.69" height="10" style="fill:#363636;stroke:#263238;stroke-linecap:round;stroke-linejoin:round"></rect><rect x="612.34" y="427.07" width="91.69" height="10" style="fill:#949494;stroke:#263238;stroke-linecap:round;stroke-linejoin:round"></rect><path d="M551.89,272.93l-6.72-7a.78.78,0,0,0-1.35.54v8.68l6.24,9.17" style="fill:#fff;stroke:#263238;stroke-linecap:round;stroke-linejoin:round"></path><path d="M548.59,318.79l-6.72-7a.78.78,0,0,0-1.35.54V321l6.23,9.18" style="fill:#fff;stroke:#263238;stroke-linecap:round;stroke-linejoin:round"></path><path d="M544.92,365.75l-6.72-7a.78.78,0,0,0-1.35.54V368l6.24,9.18" style="fill:#fff;stroke:#263238;stroke-linecap:round;stroke-linejoin:round"></path><path d="M540.52,410.88l-6.72-7a.78.78,0,0,0-1.35.54v8.68l6.23,9.17" style="fill:#fff;stroke:#263238;stroke-linecap:round;stroke-linejoin:round"></path></g><g id="freepik--Tredmill--inject-54"><path d="M75,448.27a3.09,3.09,0,0,1-3.06-2.77L58.63,324.18a3.08,3.08,0,0,1,6.13-.62L78,444.87a3.09,3.09,0,0,1-2.75,3.38Z" style="fill:#fff;stroke:#263238;stroke-linecap:round;stroke-linejoin:round"></path><rect x="54.72" y="448.45" width="93.77" height="9.35" style="fill:#949494;stroke:#263238;stroke-linecap:round;stroke-linejoin:round"></rect><path d="M141.47,415.06H102.81a11.48,11.48,0,0,0-8.22,3.45l-7,7.12h69.05l-7-7.12A11.51,11.51,0,0,0,141.47,415.06Z" style="fill:#fff;stroke:#263238;stroke-linecap:round;stroke-linejoin:round"></path><polygon points="157.88 448.97 40.92 448.97 75.69 424.79 169.66 424.79 157.88 448.97" style="fill:#949494;stroke:#263238;stroke-linecap:round;stroke-linejoin:round"></polygon><polygon points="139.74 448.97 59.06 448.97 89.64 424.79 155.71 424.79 139.74 448.97" style="fill:#949494;stroke:#263238;stroke-linecap:round;stroke-linejoin:round"></polygon><path d="M40.92,449H59.14a0,0,0,0,1,0,0v7.72a3.53,3.53,0,0,1-3.53,3.53H44.45a3.53,3.53,0,0,1-3.53-3.53V449A0,0,0,0,1,40.92,449Z" style="fill:#fff;stroke:#263238;stroke-linecap:round;stroke-linejoin:round"></path><path d="M139.66,449h18.22a0,0,0,0,1,0,0v7.72a3.53,3.53,0,0,1-3.53,3.53H143.19a3.53,3.53,0,0,1-3.53-3.53V449A0,0,0,0,1,139.66,449Z" style="fill:#fff;stroke:#263238;stroke-linecap:round;stroke-linejoin:round"></path><polygon points="157.88 457.11 169.27 437.39 169.66 424.79 157.88 448.97 157.88 457.11" style="fill:#fff;stroke:#263238;stroke-linecap:round;stroke-linejoin:round"></polygon><path d="M170.3,446a3.09,3.09,0,0,0,3.06-2.77l13.61-119a3.08,3.08,0,0,0-6.13-.62L167.23,442.61A3.08,3.08,0,0,0,170,446Z" style="fill:#fff;stroke:#263238;stroke-linecap:round;stroke-linejoin:round"></path><path d="M147.15,296H100.73c-17.86,0-25.59,12.65-34.95,24.59H182.09C172.74,308.67,165,296,147.15,296Z" style="fill:#263238;stroke:#263238;stroke-linecap:round;stroke-linejoin:round"></path><path d="M191.89,322.06c-1.3.1-4.34-1.57-6.38-3.21-.87-1.09-1.73-2.19-2.58-3.28-8.52-10.91-17.34-22.19-35.31-22.19H100.26c-18,0-26.79,11.28-35.31,22.19-.85,1.09-1.71,2.19-2.59,3.28-2,1.64-5.07,3.31-6.37,3.21a2.89,2.89,0,0,0-3.21,2.39,2.75,2.75,0,0,0,2.68,2.87l.6,0c4.57,0,9.56-4,10.55-4.8a3.59,3.59,0,0,0,.39-.39l2.8-3.56c8.35-10.69,15.57-19.93,30.46-19.93h47.36c14.89,0,22.11,9.24,30.46,19.93l2.8,3.56a3.59,3.59,0,0,0,.39.39c1,.83,6,4.8,10.55,4.8l.6,0a2.75,2.75,0,0,0,2.68-2.87A2.89,2.89,0,0,0,191.89,322.06Z" style="fill:#fff;stroke:#263238;stroke-linecap:round;stroke-linejoin:round"></path><polygon points="142.96 314.66 107.38 314.66 108.84 288.79 141.5 288.79 142.96 314.66" style="fill:#fff;stroke:#263238;stroke-linecap:round;stroke-linejoin:round"></polygon><polygon points="140.18 311.6 110.16 311.6 111.13 291.41 139.21 291.41 140.18 311.6" style="fill:#fff;stroke:#263238;stroke-linecap:round;stroke-linejoin:round"></polygon></g><g id="freepik--character-2--inject-54"><polygon points="412.71 439.4 412.71 450.73 412.71 455.41 428.22 455.41 428.22 450.73 428.22 439.4 428.22 434.72 412.71 434.72 412.71 439.4" style="fill:#263238;stroke:#263238;stroke-linecap:round;stroke-linejoin:round"></polygon><polygon points="444.39 434.72 444.39 439.4 444.39 450.73 444.39 455.41 459.89 455.41 459.89 450.73 459.89 439.4 459.89 434.72 444.39 434.72" style="fill:#263238;stroke:#263238;stroke-linecap:round;stroke-linejoin:round"></polygon><path d="M413.39,344.23s-1.84,9.08.92,14.48,5.92,8.42,6.45,10,.66,12.24,2.5,16.06,1.05,5.79,1.05,5.79-2.63,12.63-.39,17.5,2.63,13.95,3.55,17.63a66.49,66.49,0,0,1,1.45,9.48c0,.53-.92,6.84-1.58,7.37s-2.5,0-2.63,2.1,0,6.45.39,7a2.58,2.58,0,0,0,2.37.66,3.47,3.47,0,0,1,1.19-.27H435a6.76,6.76,0,0,0,4.08-1.18c1.19-1.05,1.05-5,.79-6.84a76.91,76.91,0,0,1-1.58-13.3c0-5.92,2.37-19.6,2.37-26.18a89.28,89.28,0,0,0-1.84-15.66c-.26-1.32-1.45-13.82-.79-18.69s.26-7.5-10.4-17S416.68,341.07,413.39,344.23Z" style="fill:#fff;stroke:#263238;stroke-linecap:round;stroke-linejoin:round"></path><path d="M424.58,386.61a5.55,5.55,0,0,0,3.55,2.37c2.5.52,5,.13,4.74-5.53" style="fill:none;stroke:#263238;stroke-linecap:round;stroke-linejoin:round"></path><path d="M478.65,387.73s33.93,23.19,44.48,25.35a242.29,242.29,0,0,0,25.4,3.25s9.05,4,19.19,7.24,12.77,1.5,17.61,3.65,15.14,3.54,19.3,8.07,6.84,6,8.32,9.08-.7,7.08,1.48,8.89,1.83-4.76,2.72-8.89.9-11.38.9-16.09.36-9-4-9.78-3.9,1.31-9.77-.36S580,410.9,580,410.9l-92.69-31.5Z" style="fill:#fff;stroke:#263238;stroke-linecap:round;stroke-linejoin:round"></path><path d="M478.65,387.73s33.93,23.19,44.48,25.35c5.45,1.12,12,1.95,17.14,2.49,4.67-2.92,3.55-6.84,3.55-6.84L538,396.6l-50.62-17.2Z" style="fill:#263238;stroke:#263238;stroke-linecap:round;stroke-linejoin:round"></path><path d="M475.9,387.08s21.67,9.78,26.16,12,26.89,10.08,32.21,10.64S549.68,412,549.68,412s9.8,5.88,15.68,7.84,24.37,6.45,28,7.57,18.76,10.36,20.16,11.48,5.61,10.09,5.33,12.33,1.68,5.32,2.8,5,5.6-12.89,4.76-17.93-3.36-9.52-3.36-12,.56-5.6-2.24-5.88-4.9,1.27-8.26,1.27-8,.13-14.15-5.2S586.65,405,576.85,402.75s-18.77-3.64-21.85-5-17.65-10.93-18.49-11.77-17.09-16-17.09-16-11.2-12-18.49-12.32a59.1,59.1,0,0,0-15.51,2S475.79,376.45,475.9,387.08Z" style="fill:#fff;stroke:#263238;stroke-linecap:round;stroke-linejoin:round"></path><path d="M519.42,370s-11.2-12-18.49-12.32a59.1,59.1,0,0,0-15.51,2s-9.63,16.77-9.52,27.4c0,0,21.67,9.78,26.16,12s26.89,10.08,32.21,10.64c1.79.19,4.11.5,6.41.84,6-7.23,6.74-14,6.64-17.44-4.92-3.12-10.31-6.71-10.81-7.21C535.67,385.1,519.42,370,519.42,370Z" style="fill:#263238;stroke:#263238;stroke-linecap:round;stroke-linejoin:round"></path><path d="M607,432.85c-.25.51-.47,1-.65,1.49,3.58,2.15,6.62,4.07,7.21,4.54,1.4,1.12,5.61,10.09,5.33,12.33s1.68,5.32,2.8,5,5.6-12.89,4.76-17.93-3.36-9.52-3.36-12,.56-5.6-2.24-5.88-4.9,1.27-8.26,1.27l1.36,8.47S608.17,430.48,607,432.85Z" style="fill:#D6312E;stroke:#263238;stroke-linecap:round;stroke-linejoin:round"></path><path d="M621.67,456.25c1.12-.28,5.6-12.89,4.76-17.93s-3.36-9.52-3.36-12,.56-5.6-2.24-5.88a7,7,0,0,0-1.83.06,31.32,31.32,0,0,0,2.21,10c2.53,6.6,2.37,15.4,1.86,19.3A36.3,36.3,0,0,1,621.67,456.25Z" style="fill:#fff;stroke:#263238;stroke-linecap:round;stroke-linejoin:round"></path><path d="M372.2,318.18S364,333.82,366,337.7a13.56,13.56,0,0,0,4.35,5.29s6.71,5.76,7.88,6.35,5.18-.24,5.18-.24l1.88,1.18s3.17,4.46,4,4.35,3.88-2.59,3.88-2.59,11.17,1.29,12-.12.94-5.64.94-5.64h5.17s4.67.65,5.32,7.16c.52,5.27,3.68,10.66,9.73,15.41,2.11,1.66,16.11,10.23,23.63,12.82s26,5.41,26,5.41a33.18,33.18,0,0,0,8.11-16c1.76-9.64,1.41-11.41,1.41-11.41s-6.94-5.88-8.93-8-16.58-15.41-26.81-21.28-20.81-4.59-25.87-3.53-14.58.7-16.22-1.18-13.53-12.46-18.46-14.11S375.49,312.06,372.2,318.18Z" style="fill:#fff;stroke:#263238;stroke-linecap:round;stroke-linejoin:round"></path><line x1="406.06" y1="346.28" x2="406.41" y2="339.81" style="fill:none;stroke:#263238;stroke-linecap:round;stroke-linejoin:round"></line><path d="M407.54,325.66c-1.78-2-13.51-12.43-18.41-14.07s-13.64.47-16.93,6.59c0,0-8.23,15.64-6.24,19.52a15.56,15.56,0,0,0,3.48,4.61l.05,0s.35-5.29,2.94-8.58,6.47.82,7.41,2.82,3.64,1.88,4.94.82,2.7-2.82,4-2.47,2.94.94,2.24-.58-4.35-3.77-2.12-6.71,8.23.36,8.82,2.36l.59,2a21.62,21.62,0,0,0,5.05-2.46C405.18,328.27,406.69,327.29,407.54,325.66Z" style="fill:#263238;stroke:#263238;stroke-linecap:round;stroke-linejoin:round"></path><path d="M387.35,347.58c0,.43-.7.78-1.56.78s-1.57-.35-1.57-.78.7-.79,1.57-.79S387.35,347.14,387.35,347.58Z" style="fill:#263238"></path><path d="M382.6,347.7s-1.35-2.09.86-3.07" style="fill:none;stroke:#263238;stroke-linecap:round;stroke-linejoin:round"></path><line x1="396.22" y1="351.87" x2="396.47" y2="349.91" style="fill:none;stroke:#263238;stroke-linecap:round;stroke-linejoin:round"></line><path d="M411.23,346.28s7.53,1.53,9.88,3.41" style="fill:none;stroke:#263238;stroke-linecap:round;stroke-linejoin:round"></path><path d="M425.27,360.4c2.05,2.12,4.82,4.58,7.36,5.51" style="fill:none;stroke:#263238;stroke-linecap:round;stroke-linejoin:round"></path><path d="M422.17,356.86s.59.77,1.56,1.87" style="fill:none;stroke:#263238;stroke-linecap:round;stroke-linejoin:round"></path><path d="M469.49,359.89c.68-.23,1.36-.49,2.06-.8" style="fill:none;stroke:#263238;stroke-linecap:round;stroke-linejoin:round"></path><path d="M453.91,359.56a22.17,22.17,0,0,0,13.18,1" style="fill:none;stroke:#263238;stroke-linecap:round;stroke-linejoin:round"></path><path d="M476.88,374.48c-2.34-2-5.45-4.93-6.51-7.74" style="fill:none;stroke:#263238;stroke-linecap:round;stroke-linejoin:round"></path><path d="M479.66,376.61s-.47-.32-1.2-.88" style="fill:none;stroke:#263238;stroke-linecap:round;stroke-linejoin:round"></path><rect x="427.34" y="442.54" width="26.85" height="4.03" style="fill:#fff;stroke:#263238;stroke-linecap:round;stroke-linejoin:round"></rect><path d="M426.75,330.05s-3.88,8.7-1.41,16.46a53.32,53.32,0,0,0,8,14.7s-2,9.41-.7,15.17,3.76,15.05,3.88,15.52-2.47,8.11.35,15.28,5.06,24.34,5.06,26.81-.35,3.06-.35,3.06-2.12.47-3.65.94-2.35,2.58-2.7,3.64-2,1.53-1.53,2.35,2.94.83,2.94.83l1.29,6.23s-.82,1.17.24,1.41,3.88-.71,3.88-.71a4.4,4.4,0,0,0,2.23.24c1.06-.24,1.88-.71,2.23-.59a2.49,2.49,0,0,0,2.35-.23c1.06-.71,1.3-.71,1.77-1.65s.59,0,.59-2.12-.12-7.64,0-10.7.94-28.21.94-28.21.11-19.05-.47-21.29-1.06-4.82-1.06-4.82,4.23-11.05,3.88-16.69-1.65-8.7-1.53-9.88.35-12.46.35-12.46" style="fill:#fff;stroke:#263238;stroke-linecap:round;stroke-linejoin:round"></path><path d="M448.5,349.34s-.47,6.34-7.41,10.11" style="fill:none;stroke:#263238;stroke-linecap:round;stroke-linejoin:round"></path><path d="M449.33,372.62a25.76,25.76,0,0,1-2.94,3.64c-1.3,1.18-1.3,4.47-4,4.47h-2.71" style="fill:none;stroke:#263238;stroke-linecap:round;stroke-linejoin:round"></path><path d="M447.8,385.31s2.23,10.59,1.76,12.23-2.35,6.23-2.35,6.23" style="fill:none;stroke:#263238;stroke-linecap:round;stroke-linejoin:round"></path><path d="M451.68,387.19a8.6,8.6,0,0,1-1.18,3.18l-.94,1.41" style="fill:none;stroke:#263238;stroke-linecap:round;stroke-linejoin:round"></path><rect x="419.17" y="434.72" width="15.51" height="20.69" style="fill:#5c5c5c;stroke:#263238;stroke-linecap:round;stroke-linejoin:round"></rect><rect x="419.17" y="439.4" width="15.51" height="11.33" style="fill:#363636;stroke:#263238;stroke-linecap:round;stroke-linejoin:round"></rect><rect x="450.85" y="434.72" width="15.51" height="20.69" style="fill:#5c5c5c;stroke:#263238;stroke-linecap:round;stroke-linejoin:round"></rect><rect x="450.85" y="439.4" width="15.51" height="11.33" style="fill:#363636;stroke:#263238;stroke-linecap:round;stroke-linejoin:round"></rect></g><g id="freepik--character-1--inject-54"><path d="M323.14,446a3.08,3.08,0,0,0,3.06-2.77l12.19-119a3.08,3.08,0,0,0-6.13-.62L320.07,442.61a3.08,3.08,0,0,0,2.75,3.37Z" style="fill:#fff;stroke:#263238;stroke-linecap:round;stroke-linejoin:round"></path><path d="M226.38,448.27a3.08,3.08,0,0,1-3.06-2.77L210.05,324.18a3.08,3.08,0,0,1,6.13-.62l13.26,121.31a3.08,3.08,0,0,1-2.75,3.38Z" style="fill:#fff;stroke:#263238;stroke-linecap:round;stroke-linejoin:round"></path><rect x="232.02" y="448.45" width="93.77" height="9.35" style="fill:#949494;stroke:#263238;stroke-linecap:round;stroke-linejoin:round"></rect><path d="M293.11,415.06H254.45a11.5,11.5,0,0,0-8.22,3.45l-7,7.12H308.3l-7-7.12A11.5,11.5,0,0,0,293.11,415.06Z" style="fill:#fff;stroke:#263238;stroke-linecap:round;stroke-linejoin:round"></path><polygon points="335.18 448.97 218.22 448.97 227.11 424.79 321.08 424.79 335.18 448.97" style="fill:#fff;stroke:#263238;stroke-linecap:round;stroke-linejoin:round"></polygon><polygon points="317.04 448.97 236.36 448.97 241.06 424.79 307.13 424.79 317.04 448.97" style="fill:#949494;stroke:#263238;stroke-linecap:round;stroke-linejoin:round"></polygon><path d="M218.22,449h18.22a0,0,0,0,1,0,0v7.72a3.53,3.53,0,0,1-3.53,3.53H221.75a3.53,3.53,0,0,1-3.53-3.53V449A0,0,0,0,1,218.22,449Z" style="fill:#fff;stroke:#263238;stroke-linecap:round;stroke-linejoin:round"></path><path d="M317,449h18.22a0,0,0,0,1,0,0v7.72a3.53,3.53,0,0,1-3.53,3.53H320.49a3.53,3.53,0,0,1-3.53-3.53V449A0,0,0,0,1,317,449Z" style="fill:#fff;stroke:#263238;stroke-linecap:round;stroke-linejoin:round"></path><path d="M298.57,296H252.15c-17.86,0-25.59,12.65-34.94,24.59H333.52C324.16,308.67,316.43,296,298.57,296Z" style="fill:#263238;stroke:#263238;stroke-linecap:round;stroke-linejoin:round"></path><path d="M343.31,322.06c-1.3.1-4.34-1.57-6.37-3.21-.88-1.09-1.74-2.19-2.59-3.28C325.83,304.66,317,293.38,299,293.38H251.68c-18,0-26.79,11.28-35.31,22.19-.85,1.09-1.71,2.19-2.58,3.28-2,1.64-5.08,3.31-6.38,3.21a2.89,2.89,0,0,0-3.21,2.39,2.75,2.75,0,0,0,2.68,2.87l.6,0c4.57,0,9.56-4,10.55-4.8a3.59,3.59,0,0,0,.39-.39l2.8-3.56c8.35-10.69,15.57-19.93,30.46-19.93H299c14.89,0,22.11,9.24,30.46,19.93l2.8,3.56a3.59,3.59,0,0,0,.39.39c1,.83,6,4.8,10.55,4.8l.6,0a2.75,2.75,0,0,0,2.68-2.87A2.89,2.89,0,0,0,343.31,322.06Z" style="fill:#fff;stroke:#263238;stroke-linecap:round;stroke-linejoin:round"></path><polygon points="294.38 314.66 258.81 314.66 260.27 288.79 292.92 288.79 294.38 314.66" style="fill:#fff;stroke:#263238;stroke-linecap:round;stroke-linejoin:round"></polygon><polygon points="291.61 311.6 261.58 311.6 262.56 291.41 290.63 291.41 291.61 311.6" style="fill:#fff;stroke:#263238;stroke-linecap:round;stroke-linejoin:round"></polygon><path d="M317.12,260.74c-1.22-5-8.32-28.42-9.21-32.42s-4.66-8.21-9.32-8.32-13.21-2.67-16.32-5.11-1.22-6.66-1.22-6.66a11.47,11.47,0,0,0,3.66-2.55,6.56,6.56,0,0,0,1.55-4.89,6.83,6.83,0,0,0,3.33-2.1c1.89-1.89,2-5.33,1.45-7.22s-2.11-.56-2.11-.56l-10.55,1.23-16.09-1.45s-3.22-.33-4.11,1.56,2.22,6.77,4.33,8.32,3.22,2.11,3.33,2.78,2.44,6.44,1,8.55-8.77,3.33-13.54,4.77-6.78,3.44-9,5.44-5.1,10.43-6.21,13.87-9.88,19.87-11.77,23-.89,6.44-1.44,13.32,1.11,24.09,1.66,28.31S229,311.36,230.76,312s2.33.45,4-.55,5.21-3.77,5.33-4.88-2.22-6.11-2.56-6.11-4-1-4-1a24.54,24.54,0,0,1-1.11-5.88c-.12-2.89,1.88-8.44,3-15.32a161.34,161.34,0,0,0,1.45-17.54c0-.67,15.2-21.65,15.2-21.65s4.67,12,6.44,18.87-.44,11.44-2.66,18-9.88,23.42-10.66,28.64,1.56,13.76,5.11,26.19S258,358.32,258,358.32s-5,4.1-7.11,9.54-2.22,15.21-4.44,21.54-3.66,16.43-3.66,16.43l4.77,1.66s3.67-10.1,4.89-12.65,12.32-18.87,16.2-23.65,3-12.21,4.33-25.75,3.44-28.86,3.44-28.86h1.67s3.22,26.86,2.89,32.85-.56,12.44.66,17-.33,11-1.11,19.54,3,21.31,2.67,30.63-1,18.1-.78,22.09,4.42,3.19,7.3,3,3.25-3.19,2.8-6.18-1.89-14.77-1.11-20.43,7.33-21.54,8.22-30.42-3.67-17.42-3.67-20.31,8.44-40.85,9.1-50.29-4.1-22.2-7.21-32.86A64.07,64.07,0,0,1,295,262.51s14.66,2.67,17.65,2.89S318.35,265.73,317.12,260.74Zm-77,45.85a53.62,53.62,0,0,1-5.73,2.26c-.63,0-1.43-1.75-.63-2.55s2.39-2.55,2.39-2.55m-3.51,0,1.12,2.55m-.48,1.75L231,309.33s-.63,1.12,1,1.59m63.08-55.73,1.68-9.24.17-3.36,5,11.26Z" style="fill:#fff;stroke:#263238;stroke-linecap:round;stroke-linejoin:round"></path><path d="M296.73,246s-12.09-5-13.6-13.43c-1-5.62,1.81-11.77,3.79-15.22a21.87,21.87,0,0,1-4.23-2.1c-1.54,2.61-4.76,6.72-10,7.4-5.87.77-9.89-5.15-11.49-8-1.31.37-2.72.73-4.1,1.08l-.53.41s9.69,9.94,8.06,17.64c-1.42,6.68-8.72,9.86-10.63,10.59,1.06,2.9,2.37,6.6,3.4,9.92a105.57,105.57,0,0,1,13.11-2.7c10.58-1.68,24.52,3.69,24.52,3.69Z" style="fill:#D6312E;stroke:#263238;stroke-linecap:round;stroke-linejoin:round"></path><path d="M305,314c-.67,9.43-9.11,47.4-9.11,50.29s4.55,11.43,3.67,20.31c-.72,7.21-5.17,19-7.23,26.22l-9.42-.07c-.76-8.34-3.07-17.94-2.45-24.81.78-8.56,2.34-15,1.11-19.54s-1-11-.67-17-2.88-32.86-2.88-32.86h-1.66s-2.12,15.32-3.45,28.87-.44,21-4.33,25.75c-2.8,3.45-9.37,12.91-13.26,18.87a11.43,11.43,0,0,0-5.49-2.84,17.33,17.33,0,0,0-2.74-.22c1.56-6.2,1.87-14.35,3.73-19.13,2.11-5.45,7.11-9.55,7.11-9.55s-4.11-15.1-7.67-27.54-5.87-21-5.1-26.19c.74-5,7.7-20.44,10.29-27.6.13-.37.26-.72.37-1,.38-1.15.77-2.23,1.14-3.28a62.8,62.8,0,0,1,26-2.36,78.79,78.79,0,0,1,13,2.63c.3,1.76.69,3.68,1.2,5.73.21.81.44,1.64.68,2.49C300.92,291.82,305.69,304.59,305,314Z" style="fill:#D6312E;stroke:#263238;stroke-linecap:round;stroke-linejoin:round"></path><path d="M263.3,316.33s9.7,1,13.09.24" style="fill:none;stroke:#263238;stroke-linecap:round;stroke-linejoin:round"></path><path d="M279.26,316.5s2.69,2.52,11.09,1.35" style="fill:none;stroke:#263238;stroke-linecap:round;stroke-linejoin:round"></path><path d="M297.13,278.67c-17.33-7.3-35-3.57-41.65-1.68.13-.37.26-.72.37-1,.38-1.15.77-2.23,1.14-3.28a62.8,62.8,0,0,1,26-2.36,78.79,78.79,0,0,1,13,2.63C296.23,274.7,296.62,276.62,297.13,278.67Z" style="fill:#263238;stroke:#263238;stroke-linecap:round;stroke-linejoin:round"></path><path d="M259.44,359s6.05-.51,10.08,3.36" style="fill:none;stroke:#263238;stroke-linecap:round;stroke-linejoin:round"></path><path d="M278.05,172.93s-6.77-3.33-11.54-.22-7.66,10.77-7.33,15.43,3.11,11.21,5.66,14.54,5.22,5.33,7.1,5.66,2.67,2.22,8-1.77,7.21-6.33,8.21-12.88.11-11.21-.66-13.1a14.22,14.22,0,0,0-1.34-2.66,5.63,5.63,0,0,1,3.11,2.77,14.82,14.82,0,0,1,.89,5.55s4.22-2.88,1.89-8.43-7.55-5.89-9-5.44a10.54,10.54,0,0,0-2.34,1Z" style="fill:#263238;stroke:#263238;stroke-linecap:round;stroke-linejoin:round"></path><path d="M273.28,184.7s-5.55,6.1-4.89,13,2.89,12.65,7,19.09,2.88,15.1-.34,18.21-10.21,2.77-10.21,2.77,6-4.66,1.44-11.77-15.65-3.88-19.09-9.43a17.42,17.42,0,0,1-2-11.88s-3.77-.22-3.88,2.89,2.88,5,2.88,5-4.33,1.22-6.21-1.55-6.55-14.21,3.44-21.21,16.87-8.32,21-8.21S274.5,180.81,273.28,184.7Z" style="fill:#263238;stroke:#263238;stroke-linecap:round;stroke-linejoin:round"></path><line x1="252.07" y1="239.09" x2="246.84" y2="231.34" style="fill:none;stroke:#263238;stroke-linecap:round;stroke-linejoin:round"></line><line x1="296.9" y1="242.59" x2="297.4" y2="232.68" style="fill:none;stroke:#263238;stroke-linecap:round;stroke-linejoin:round"></line><path d="M301.94,253.85a23.85,23.85,0,0,0,4.2,5.54" style="fill:none;stroke:#263238;stroke-linecap:round;stroke-linejoin:round"></path><path d="M295.05,255.19s-1,5.07,0,7.32" style="fill:none;stroke:#263238;stroke-linecap:round;stroke-linejoin:round"></path><path d="M249.2,412.58c-.29-1.29-3.07-3.45-.86-6.91,2.94-4.62,2.87-6.86.18-9.38s-8.56.17-9.24,5-3.52,11.08-1.67,16.12,5,10.59,8.06,10.59,5.37-6.56,4.87-10.75S249.2,412.58,249.2,412.58Z" style="fill:#263238;stroke:#263238;stroke-linecap:round;stroke-linejoin:round"></path><path d="M282.69,427c-.25,5.05-.45,9.29-.31,11.73.22,4,4.42,3.19,7.3,3s3.25-3.19,2.8-6.18c-.22-1.52-.7-5.26-1-9.32A17.46,17.46,0,0,1,282.69,427Z" style="fill:#263238;stroke:#263238;stroke-linecap:round;stroke-linejoin:round"></path></g></svg>