<svg xmlns="http://www.w3.org/2000/svg" viewBox="0 0 500 500"><g id="freepik--Dumbbells--inject-15"><g id="freepik--Rack--inject-15"><polygon points="238.87 389.74 242.94 387.39 222.62 286.55 218.56 288.89 238.87 389.74" style="fill:#37474f"></polygon><path d="M218.56,288.89l-12.18-7L226.69,382.7l12.18,7Z" style="fill:#263238"></path><polygon points="210.44 279.51 206.38 281.86 218.56 288.89 222.62 286.55 210.44 279.51" style="fill:#455a64"></polygon><polygon points="148.44 337.52 160.63 344.56 202.31 185.7 190.13 178.67 148.44 337.52" style="fill:#263238"></polygon><polygon points="160.63 344.56 164.69 342.22 206.38 183.36 202.31 185.7 160.63 344.56" style="fill:#37474f"></polygon><polygon points="194.19 176.32 206.38 183.36 202.31 185.7 190.13 178.67 194.19 176.32" style="fill:#455a64"></polygon><polygon points="148.44 337.52 151.65 325.31 235.6 373.78 238.87 389.74 148.44 337.52" style="fill:#263238"></polygon><polygon points="163.83 332.34 167.89 330 222.41 361.47 223.48 366.78 163.83 332.34" style="fill:#455a64"></polygon><polygon points="80.45 239.64 184.26 179.71 184.26 186.75 80.45 246.68 80.45 239.64" style="fill:#263238"></polygon><polygon points="184.26 179.71 204.57 191.44 204.57 198.47 184.26 186.75 184.26 179.71" style="fill:#37474f"></polygon><polygon points="100.76 251.37 204.57 191.44 204.57 198.47 100.76 258.41 100.76 251.37" style="fill:#263238"></polygon><polygon points="84.51 249.02 188.32 189.09 196.45 193.78 92.64 253.72 84.51 249.02" style="fill:#455a64"></polygon><polygon points="80.45 239.64 100.76 251.37 100.76 258.41 80.45 246.68 80.45 239.64" style="fill:#37474f"></polygon><g id="freepik--Dumbbell--inject-15"><polygon points="117.53 219.57 118.87 219.19 112.97 218.66 109.51 218.86 117.53 219.57" style="fill:#37474f"></polygon><polygon points="112.97 210.79 112.97 218.66 109.51 218.86 109.51 209.13 112.97 210.79" style="fill:#455a64"></polygon><polygon points="118.87 203.46 116.23 200.77 109.51 209.13 112.97 210.79 118.87 203.46" style="fill:#37474f"></polygon><polygon points="124.77 203.98 124.25 201.49 116.23 200.77 118.87 203.46 124.77 203.98" style="fill:#263238"></polygon><polygon points="124.77 211.85 124.77 203.98 118.87 203.46 112.97 210.79 112.97 218.66 118.87 219.19 124.77 211.85" style="fill:#455a64"></polygon><polygon points="109.51 218.86 104.85 216.17 104.85 206.44 109.51 209.13 109.51 218.86" style="fill:#455a64"></polygon><polygon points="116.23 200.77 109.51 209.13 104.85 206.44 111.57 198.08 116.23 200.77" style="fill:#37474f"></polygon><polygon points="124.25 201.49 119.6 198.8 111.57 198.08 116.23 200.77 124.25 201.49" style="fill:#263238"></polygon><path d="M109.62,214c0-1.6,0-3.2,0-4.81l3.34-4.12,3.29-4.13c2.65.2,5.3.4,8,.56-2.67-.32-5.34-.6-8-.87h-.08l0,.06-3.38,4.16L109.38,209l0,0v.06c0,1.62,0,3.24.05,4.86s.08,3.24.11,4.87C109.55,217.23,109.61,215.61,109.62,214Z" style="opacity:0.2"></path><polygon points="111.57 198.08 109.62 198.46 104.02 205.42 104.85 206.44 111.57 198.08" style="fill:#37474f"></polygon><polygon points="104.02 213.52 104.85 216.17 104.85 206.44 104.02 205.42 104.02 213.52" style="fill:#455a64"></polygon><g style="opacity:0.2"><path d="M104.85,216.17c-.06-1.62-.11-3.25-.13-4.87s0-3.24,0-4.86v-.07l0-.05q1.68-2.08,3.39-4.15t3.47-4.09q-1.59,2.16-3.24,4.27l-3.33,4.2,0-.11c0,1.62,0,3.24,0,4.86S104.92,214.55,104.85,216.17Z"></path></g><polygon points="124.77 203.98 119.03 203.84 113.39 210.94 113.31 218.43 118.87 219.19 112.97 218.66 112.97 210.79 118.87 203.46 124.77 203.98" style="fill:#fff;opacity:0.1"></polygon><path d="M109,214.7a.07.07,0,0,1,0,.06.13.13,0,0,1-.1,0l-.53-.31a.28.28,0,0,1-.1-.09l-.08-.1-.62-.89a.51.51,0,0,1-.34.36.83.83,0,0,1-.63-.15,2.2,2.2,0,0,1-1.15-2,1.23,1.23,0,0,1,.09-.51.55.55,0,0,1,.22-.27.51.51,0,0,1,.32-.07.87.87,0,0,1,.37.11.3.3,0,0,1,.08.08.16.16,0,0,1,0,.08v.56c0,.06,0,.09,0,.11l-.1.05a.17.17,0,0,0-.1.09s0,.12,0,.24a1.1,1.1,0,0,0,.08.4.59.59,0,0,0,.26.28c.12.07.2.07.26,0a.47.47,0,0,0,.08-.3v-.36a.05.05,0,0,1,0-.06s0,0,.09,0l.44.25a.41.41,0,0,1,.1.09l.08.11.54.77v-1.14a.05.05,0,0,1,0-.06.13.13,0,0,1,.1,0l.53.31a.28.28,0,0,1,.1.09.3.3,0,0,1,0,.11Z" style="fill:#263238"></path><path d="M136.67,225.33a1.62,1.62,0,0,0,1.62-.16,5.08,5.08,0,0,0,2.29-4,1.6,1.6,0,0,0-.68-1.48L120.47,208.5a1.6,1.6,0,0,0-1.62.16,5,5,0,0,0-2.29,4,1.6,1.6,0,0,0,.67,1.48Z" style="fill:#f0f0f0"></path><path d="M140.58,221.2a1.4,1.4,0,0,0-2.29-1.32,5.05,5.05,0,0,0-2.29,4,1.59,1.59,0,0,0,.67,1.48,1.62,1.62,0,0,0,1.62-.16A5.08,5.08,0,0,0,140.58,221.2Z" style="fill:#fafafa"></path><path d="M132.6,223l-.77-.45a1.61,1.61,0,0,1-.67-1.48,5,5,0,0,1,2.29-4,1.58,1.58,0,0,1,1.61-.16l.78.44a1.65,1.65,0,0,0-1.62.16,5.05,5.05,0,0,0-2.29,4A1.63,1.63,0,0,0,132.6,223Z" style="fill:#e0e0e0"></path><path d="M122,216.83l-.78-.44a1.6,1.6,0,0,1-.66-1.48,5,5,0,0,1,2.28-4,1.65,1.65,0,0,1,1.62-.16l.77.45a1.58,1.58,0,0,0-1.61.16,5,5,0,0,0-2.29,4A1.59,1.59,0,0,0,122,216.83Z" style="fill:#e0e0e0"></path><path d="M129.22,221l-4.65-2.68a1.61,1.61,0,0,1-.67-1.48,5,5,0,0,1,2.29-4,1.58,1.58,0,0,1,1.61-.16l4.65,2.68a1.58,1.58,0,0,0-1.61.16,5,5,0,0,0-2.29,4A1.58,1.58,0,0,0,129.22,221Z" style="fill:#e0e0e0"></path><polygon points="147.25 236.72 148.59 236.33 142.69 235.81 139.22 236 147.25 236.72" style="fill:#37474f"></polygon><polygon points="142.69 227.94 142.69 235.81 139.22 236 139.22 226.27 142.69 227.94" style="fill:#455a64"></polygon><polygon points="148.59 220.6 145.94 217.92 139.22 226.27 142.69 227.94 148.59 220.6" style="fill:#37474f"></polygon><polygon points="154.48 221.13 153.97 218.63 145.94 217.92 148.59 220.6 154.48 221.13" style="fill:#263238"></polygon><polygon points="154.48 229 154.48 221.13 148.59 220.6 142.69 227.94 142.69 235.81 148.59 236.33 154.48 229" style="fill:#455a64"></polygon><polygon points="139.22 236 134.57 233.32 134.57 223.59 139.22 226.27 139.22 236" style="fill:#455a64"></polygon><polygon points="145.94 217.92 139.22 226.27 134.57 223.59 141.28 215.23 145.94 217.92" style="fill:#37474f"></polygon><polygon points="153.97 218.63 149.31 215.95 141.28 215.23 145.94 217.92 153.97 218.63" style="fill:#263238"></polygon><path d="M139.33,231.14c0-1.6,0-3.21.06-4.81l3.33-4.12,3.29-4.13c2.65.2,5.3.4,8,.56-2.67-.32-5.34-.6-8-.88h-.08l-.05.06L142.44,222l-3.34,4.19,0,.05v.05c0,1.63,0,3.25.05,4.87s.08,3.24.11,4.86C139.26,234.38,139.32,232.76,139.33,231.14Z" style="opacity:0.2"></path><polygon points="141.28 215.23 139.33 215.61 133.74 222.57 134.57 223.59 141.28 215.23" style="fill:#37474f"></polygon><polygon points="133.74 230.67 134.57 233.32 134.57 223.59 133.74 222.57 133.74 230.67" style="fill:#455a64"></polygon><g style="opacity:0.2"><path d="M134.57,233.32c-.07-1.63-.12-3.25-.14-4.87s0-3.24,0-4.86v-.07l0-.05q1.68-2.08,3.38-4.15t3.47-4.09q-1.59,2.16-3.24,4.27c-1.1,1.4-2.21,2.81-3.33,4.2l0-.11c0,1.62,0,3.24-.05,4.86S134.63,231.69,134.57,233.32Z"></path></g><polygon points="154.48 221.13 148.74 220.99 143.1 228.09 143.02 235.58 148.59 236.33 142.69 235.81 142.69 227.94 148.59 220.6 154.48 221.13" style="fill:#fff;opacity:0.1"></polygon><path d="M138.75,231.85a.05.05,0,0,1,0,.06.13.13,0,0,1-.1,0l-.53-.31a.28.28,0,0,1-.1-.09l-.08-.1-.62-.89a.51.51,0,0,1-.34.36.83.83,0,0,1-.63-.15,2.2,2.2,0,0,1-1.15-2,1.23,1.23,0,0,1,.09-.51.57.57,0,0,1,.23-.27.49.49,0,0,1,.32-.07.72.72,0,0,1,.36.11l.08.08a.16.16,0,0,1,0,.08v.56c0,.06,0,.09,0,.11l-.11,0a.31.31,0,0,0-.1.1.43.43,0,0,0-.05.24,1,1,0,0,0,.08.39.61.61,0,0,0,.26.29c.12.07.2.07.26,0a.47.47,0,0,0,.08-.3v-.36a.05.05,0,0,1,0-.06.1.1,0,0,1,.09,0l.44.25a.28.28,0,0,1,.1.09.76.76,0,0,1,.08.11l.54.77v-1.14a.07.07,0,0,1,0-.06.13.13,0,0,1,.1,0l.53.31a.28.28,0,0,1,.1.09.17.17,0,0,1,0,.11Z" style="fill:#263238"></path></g><g id="freepik--dumbbell--inject-15"><polygon points="99.27 230.11 100.6 229.73 94.7 229.2 91.24 229.4 99.27 230.11" style="fill:#37474f"></polygon><polygon points="94.7 221.34 94.7 229.2 91.24 229.4 91.24 219.67 94.7 221.34" style="fill:#455a64"></polygon><polygon points="100.6 214 97.96 211.31 91.24 219.67 94.7 221.34 100.6 214" style="fill:#37474f"></polygon><polygon points="106.5 214.52 105.98 212.03 97.96 211.31 100.6 214 106.5 214.52" style="fill:#263238"></polygon><polygon points="106.5 222.39 106.5 214.52 100.6 214 94.7 221.34 94.7 229.2 100.6 229.73 106.5 222.39" style="fill:#455a64"></polygon><polygon points="91.24 229.4 86.58 226.71 86.59 216.98 91.24 219.67 91.24 229.4" style="fill:#455a64"></polygon><polygon points="97.96 211.31 91.24 219.67 86.59 216.98 93.3 208.62 97.96 211.31" style="fill:#37474f"></polygon><polygon points="105.98 212.03 101.33 209.34 93.3 208.62 97.96 211.31 105.98 212.03" style="fill:#263238"></polygon><path d="M91.35,224.53c0-1.6.05-3.2.05-4.8l3.34-4.13L98,211.47q4,.32,8,.56c-2.66-.32-5.34-.6-8-.87h-.08l0,.06-3.38,4.17-3.35,4.18,0,.05v.06c0,1.62,0,3.24,0,4.86s.08,3.25.11,4.87C91.28,227.78,91.34,226.15,91.35,224.53Z" style="opacity:0.2"></path><polygon points="93.3 208.62 91.35 209 85.76 215.96 86.59 216.98 93.3 208.62" style="fill:#37474f"></polygon><polygon points="85.75 224.06 86.58 226.71 86.59 216.98 85.76 215.96 85.75 224.06" style="fill:#455a64"></polygon><g style="opacity:0.2"><path d="M86.59,226.71c-.07-1.62-.12-3.24-.14-4.87s0-3.24,0-4.86v-.06l0,0c1.12-1.4,2.25-2.78,3.39-4.16s2.3-2.74,3.47-4.09q-1.59,2.16-3.24,4.27c-1.11,1.41-2.21,2.81-3.33,4.2l0-.11c0,1.62,0,3.24,0,4.86S86.65,225.09,86.59,226.71Z"></path></g><polygon points="106.5 214.52 100.76 214.38 95.12 221.49 95.04 228.97 100.6 229.73 94.7 229.2 94.7 221.34 100.6 214 106.5 214.52" style="fill:#fff;opacity:0.1"></polygon><path d="M90.77,225.24a.05.05,0,0,1,0,.06.13.13,0,0,1-.1,0L90.1,225a.28.28,0,0,1-.1-.09l-.08-.1-.62-.88a.52.52,0,0,1-.34.35.79.79,0,0,1-.63-.15,2.17,2.17,0,0,1-1.15-2,1.15,1.15,0,0,1,.09-.5.53.53,0,0,1,.22-.28.51.51,0,0,1,.32-.07,1,1,0,0,1,.37.11l.08.08a.16.16,0,0,1,0,.09v.55c0,.06,0,.1-.05.11l-.1.05a.21.21,0,0,0-.1.09.45.45,0,0,0-.05.24,1.1,1.1,0,0,0,.08.4.55.55,0,0,0,.26.28c.12.07.2.07.26,0a.47.47,0,0,0,.08-.3v-.36a.05.05,0,0,1,0-.06.11.11,0,0,1,.09,0l.44.25a.41.41,0,0,1,.1.09.76.76,0,0,1,.08.11l.54.77v-1.14a.05.05,0,0,1,0-.06.13.13,0,0,1,.1,0l.53.31a.28.28,0,0,1,.1.09.19.19,0,0,1,0,.11Z" style="fill:#263238"></path><path d="M118.4,235.87a1.62,1.62,0,0,0,1.62-.16,5.08,5.08,0,0,0,2.29-4,1.61,1.61,0,0,0-.67-1.48c-.26-.14-19.19-11.08-19.44-11.22a1.6,1.6,0,0,0-1.62.16,5.06,5.06,0,0,0-2.29,4,1.63,1.63,0,0,0,.67,1.49Z" style="fill:#f0f0f0"></path><path d="M122.31,231.74a1.4,1.4,0,0,0-2.29-1.32,5.05,5.05,0,0,0-2.29,4,1.59,1.59,0,0,0,.67,1.48,1.62,1.62,0,0,0,1.62-.16A5.08,5.08,0,0,0,122.31,231.74Z" style="fill:#fafafa"></path><path d="M114.33,233.52l-.77-.45a1.6,1.6,0,0,1-.67-1.48,5,5,0,0,1,2.29-4,1.58,1.58,0,0,1,1.61-.16l.78.44a1.65,1.65,0,0,0-1.62.16,5.08,5.08,0,0,0-2.29,4A1.61,1.61,0,0,0,114.33,233.52Z" style="fill:#e0e0e0"></path><path d="M103.69,227.37l-.77-.44a1.6,1.6,0,0,1-.67-1.48,5,5,0,0,1,2.29-4,1.63,1.63,0,0,1,1.61-.16l.77.45a1.58,1.58,0,0,0-1.61.16,5,5,0,0,0-2.29,4A1.6,1.6,0,0,0,103.69,227.37Z" style="fill:#e0e0e0"></path><path d="M111,231.56l-4.65-2.68a1.61,1.61,0,0,1-.67-1.48,5,5,0,0,1,2.29-4,1.58,1.58,0,0,1,1.61-.16l4.65,2.68a1.6,1.6,0,0,0-1.61.16,5.05,5.05,0,0,0-2.29,4A1.6,1.6,0,0,0,111,231.56Z" style="fill:#e0e0e0"></path><polygon points="128.98 247.26 130.32 246.88 124.42 246.35 120.95 246.55 128.98 247.26" style="fill:#37474f"></polygon><polygon points="124.42 238.48 124.42 246.35 120.95 246.55 120.95 236.81 124.42 238.48" style="fill:#455a64"></polygon><polygon points="130.32 231.15 127.67 228.46 120.95 236.81 124.42 238.48 130.32 231.15" style="fill:#37474f"></polygon><polygon points="136.22 231.67 135.7 229.18 127.67 228.46 130.32 231.15 136.22 231.67" style="fill:#263238"></polygon><polygon points="136.22 239.54 136.22 231.67 130.32 231.15 124.42 238.48 124.42 246.35 130.32 246.88 136.22 239.54" style="fill:#455a64"></polygon><polygon points="120.95 246.55 116.3 243.86 116.3 234.13 120.95 236.81 120.95 246.55" style="fill:#455a64"></polygon><polygon points="127.67 228.46 120.95 236.81 116.3 234.13 123.02 225.77 127.67 228.46" style="fill:#37474f"></polygon><polygon points="135.7 229.18 131.04 226.49 123.02 225.77 127.67 228.46 135.7 229.18" style="fill:#263238"></polygon><path d="M121.06,241.68c0-1.6.06-3.2.06-4.81l3.33-4.12,3.29-4.13c2.65.2,5.3.4,8,.56-2.67-.32-5.34-.6-8-.87h-.09l0,.06-3.38,4.16-3.34,4.19,0,0v.06c0,1.62,0,3.24.06,4.86s.07,3.24.1,4.87C121,244.92,121.05,243.3,121.06,241.68Z" style="opacity:0.2"></path><polygon points="123.02 225.77 121.06 226.15 115.47 233.11 116.3 234.13 123.02 225.77" style="fill:#37474f"></polygon><polygon points="115.47 241.21 116.3 243.86 116.3 234.13 115.47 233.11 115.47 241.21" style="fill:#455a64"></polygon><g style="opacity:0.2"><path d="M116.3,243.86c-.06-1.62-.11-3.25-.14-4.87s0-3.24,0-4.86v-.07l0-.05q1.68-2.08,3.38-4.15t3.48-4.09q-1.6,2.16-3.25,4.27t-3.33,4.2l0-.11c0,1.62,0,3.24,0,4.86S116.36,242.24,116.3,243.86Z"></path></g><polygon points="136.22 231.67 130.47 231.53 124.83 238.64 124.75 246.12 130.32 246.88 124.42 246.35 124.42 238.48 130.32 231.15 136.22 231.67" style="fill:#fff;opacity:0.1"></polygon><path d="M120.48,242.39a.05.05,0,0,1,0,.06.1.1,0,0,1-.09,0l-.54-.31a.28.28,0,0,1-.1-.09l-.08-.1L119,241a.55.55,0,0,1-.35.36.83.83,0,0,1-.63-.15,2.2,2.2,0,0,1-1.15-2,1.15,1.15,0,0,1,.09-.5.55.55,0,0,1,.23-.28.49.49,0,0,1,.32-.07.83.83,0,0,1,.36.11.3.3,0,0,1,.08.08.16.16,0,0,1,0,.08v.56c0,.06,0,.09,0,.11l-.11.05a.2.2,0,0,0-.1.09.43.43,0,0,0,0,.24,1.1,1.1,0,0,0,.08.4.64.64,0,0,0,.26.28c.12.07.2.07.26,0a.47.47,0,0,0,.08-.3v-.36a.05.05,0,0,1,0-.06.13.13,0,0,1,.1,0l.43.25a.28.28,0,0,1,.1.09.76.76,0,0,1,.08.11l.54.77v-1.14a.07.07,0,0,1,0-.06.13.13,0,0,1,.1,0l.54.31.09.09a.19.19,0,0,1,0,.11Z" style="fill:#263238"></path></g><g id="freepik--dumbbell--inject-15"><polygon points="163.95 191.5 165.59 191.03 158.37 190.39 154.14 190.63 163.95 191.5" style="fill:#37474f"></polygon><polygon points="158.37 180.77 158.37 190.39 154.14 190.63 154.14 178.73 158.37 180.77" style="fill:#455a64"></polygon><polygon points="165.59 171.8 162.35 168.52 154.14 178.73 158.37 180.77 165.59 171.8" style="fill:#37474f"></polygon><polygon points="172.8 172.44 172.16 169.39 162.35 168.52 165.59 171.8 172.8 172.44" style="fill:#263238"></polygon><polygon points="172.8 182.06 172.8 172.44 165.59 171.8 158.37 180.77 158.37 190.39 165.59 191.03 172.8 182.06" style="fill:#455a64"></polygon><polygon points="154.14 190.63 148.45 187.34 148.45 175.45 154.14 178.73 154.14 190.63" style="fill:#455a64"></polygon><polygon points="162.35 168.52 154.14 178.73 148.45 175.45 156.66 165.23 162.35 168.52" style="fill:#37474f"></polygon><polygon points="172.16 169.39 166.47 166.11 156.66 165.23 162.35 168.52 172.16 169.39" style="fill:#263238"></polygon><path d="M154.27,184.68c0-2,.07-3.92.07-5.88l4.08-5,4-5c3.24.25,6.48.49,9.72.68q-4.89-.57-9.79-1.06h-.1l-.06.08-4.14,5.09L154,178.61l-.05,0v.07c0,2,0,4,.07,6s.09,4,.13,5.95C154.18,188.65,154.26,186.66,154.27,184.68Z" style="opacity:0.2"></path><polygon points="156.66 165.23 154.27 165.7 147.43 174.2 148.45 175.45 156.66 165.23" style="fill:#37474f"></polygon><polygon points="147.43 184.11 148.45 187.34 148.45 175.45 147.43 174.2 147.43 184.11" style="fill:#455a64"></polygon><g style="opacity:0.2"><path d="M148.45,187.34q-.12-3-.17-6c0-2,0-4-.05-5.94v-.08l.05-.06c1.37-1.7,2.75-3.4,4.13-5.08s2.81-3.35,4.25-5q-1.95,2.64-4,5.22c-1.35,1.72-2.7,3.43-4.07,5.13l0-.13c0,2,0,4-.06,5.94S148.52,185.36,148.45,187.34Z"></path></g><polygon points="172.8 172.44 165.78 172.27 158.88 180.96 158.78 190.11 165.59 191.03 158.37 190.39 158.37 180.77 165.59 171.8 172.8 172.44" style="fill:#fff;opacity:0.1"></polygon><path d="M152.16,180.43a.15.15,0,0,1,.12,0,.49.49,0,0,1,.12.13l1,1.74.08.15a.41.41,0,0,1,.05.17v.65a.08.08,0,0,1-.05.08.15.15,0,0,1-.12,0l-4-2.3-.12-.11a.27.27,0,0,1,0-.13v-.71a.07.07,0,0,1,0-.07.14.14,0,0,1,.12,0l2.7,1.56-.55-1a.24.24,0,0,1,0-.13.09.09,0,0,1,.07-.06Z" style="fill:#263238"></path><path d="M153.61,185.69a1.13,1.13,0,0,1-.13.61.6.6,0,0,1-.37.27,1,1,0,0,1-.53,0,2.61,2.61,0,0,1-.64-.26,6.38,6.38,0,0,1-.56-.31l-.54-.32a4.28,4.28,0,0,1-.64-.48,3.74,3.74,0,0,1-.54-.59,3.24,3.24,0,0,1-.36-.69,2.23,2.23,0,0,1-.14-.77,1.12,1.12,0,0,1,.14-.61.6.6,0,0,1,.36-.27,1.12,1.12,0,0,1,.54,0,4.54,4.54,0,0,1,.64.26c.17.09.35.19.54.31l.56.33a5.62,5.62,0,0,1,.64.48,3.29,3.29,0,0,1,.53.59,2.55,2.55,0,0,1,.37.69A2.19,2.19,0,0,1,153.61,185.69Zm-2.74-1,1,.6.28.12a.7.7,0,0,0,.23,0,.24.24,0,0,0,.15-.09.37.37,0,0,0,.05-.23.73.73,0,0,0-.05-.3,1.35,1.35,0,0,0-.15-.26,1.67,1.67,0,0,0-.23-.23,2,2,0,0,0-.28-.2c-.34-.21-.69-.41-1-.6a2.38,2.38,0,0,0-.29-.13.45.45,0,0,0-.22,0,.19.19,0,0,0-.15.08.38.38,0,0,0-.06.24.73.73,0,0,0,.06.3.76.76,0,0,0,.15.26,1.58,1.58,0,0,0,.22.23Z" style="fill:#263238"></path><path d="M184.15,196a1.66,1.66,0,0,0,1.68-.17,5.24,5.24,0,0,0,2.38-4.12,1.65,1.65,0,0,0-.7-1.54l-20.19-11.66a1.68,1.68,0,0,0-1.69.17,5.27,5.27,0,0,0-2.38,4.12,1.67,1.67,0,0,0,.7,1.54Z" style="fill:#f0f0f0"></path><path d="M188.21,191.73a1.45,1.45,0,0,0-2.38-1.37,5.27,5.27,0,0,0-2.38,4.12,1.45,1.45,0,0,0,2.38,1.37A5.24,5.24,0,0,0,188.21,191.73Z" style="fill:#fafafa"></path><path d="M179.92,193.58l-.8-.47a1.65,1.65,0,0,1-.69-1.53,5.21,5.21,0,0,1,2.37-4.12,1.67,1.67,0,0,1,1.68-.17l.81.46a1.69,1.69,0,0,0-1.68.17,5.24,5.24,0,0,0-2.38,4.12A1.7,1.7,0,0,0,179.92,193.58Z" style="fill:#e0e0e0"></path><path d="M168.86,187.19l-.8-.46a1.67,1.67,0,0,1-.69-1.54,5.23,5.23,0,0,1,2.37-4.12,1.69,1.69,0,0,1,1.68-.17l.81.47a1.66,1.66,0,0,0-1.68.16,5.23,5.23,0,0,0-2.38,4.12A1.67,1.67,0,0,0,168.86,187.19Z" style="fill:#e0e0e0"></path><path d="M176.41,191.55l-4.83-2.79a1.67,1.67,0,0,1-.7-1.54,5.24,5.24,0,0,1,2.38-4.12,1.69,1.69,0,0,1,1.68-.17l4.83,2.79a1.69,1.69,0,0,0-1.68.17,5.27,5.27,0,0,0-2.38,4.12A1.69,1.69,0,0,0,176.41,191.55Z" style="fill:#e0e0e0"></path><polygon points="196.76 210.45 198.4 209.98 191.19 209.33 186.95 209.57 196.76 210.45" style="fill:#37474f"></polygon><polygon points="191.19 199.72 191.19 209.33 186.95 209.57 186.95 197.68 191.19 199.72" style="fill:#455a64"></polygon><polygon points="198.4 190.75 195.16 187.46 186.95 197.68 191.19 199.72 198.4 190.75" style="fill:#37474f"></polygon><polygon points="205.61 191.39 204.98 188.34 195.16 187.46 198.4 190.75 205.61 191.39" style="fill:#263238"></polygon><polygon points="205.61 201 205.61 191.39 198.4 190.75 191.19 199.72 191.19 209.33 198.4 209.98 205.61 201" style="fill:#455a64"></polygon><polygon points="186.95 209.57 181.26 206.29 181.26 194.39 186.95 197.68 186.95 209.57" style="fill:#455a64"></polygon><polygon points="195.16 187.46 186.95 197.68 181.26 194.39 189.47 184.18 195.16 187.46" style="fill:#37474f"></polygon><polygon points="204.98 188.34 199.28 185.05 189.47 184.18 195.16 187.46 204.98 188.34" style="fill:#263238"></polygon><path d="M187.09,203.63c0-2,.06-3.92.06-5.88l4.08-5,4-5.05q4.86.38,9.73.68c-3.27-.39-6.53-.74-9.8-1.07h-.1l-.06.08-4.13,5.09-4.09,5.12-.05.06v.07c0,2,0,4,.07,5.95s.09,4,.13,5.94C187,207.59,187.07,205.61,187.09,203.63Z" style="opacity:0.2"></path><polygon points="189.47 184.18 187.08 184.64 180.25 193.15 181.26 194.39 189.47 184.18" style="fill:#37474f"></polygon><polygon points="180.25 203.05 181.26 206.29 181.26 194.39 180.25 193.15 180.25 203.05" style="fill:#455a64"></polygon><g style="opacity:0.2"><path d="M181.26,206.29q-.12-3-.17-5.95c0-2,0-4-.05-6v-.08l.05-.06q2.06-2.55,4.14-5.08c1.39-1.68,2.8-3.35,4.24-5q-2,2.63-4,5.22c-1.35,1.71-2.71,3.43-4.08,5.13l0-.14c0,2,0,4,0,6S181.34,204.3,181.26,206.29Z"></path></g><polygon points="205.61 191.39 198.59 191.22 191.69 199.9 191.59 209.06 198.4 209.98 191.19 209.33 191.19 199.72 198.4 190.75 205.61 191.39" style="fill:#fff;opacity:0.1"></polygon><path d="M185,199.37a.27.27,0,0,1,.13,0,.43.43,0,0,1,.11.12l1,1.74.08.16a.28.28,0,0,1,.05.17v.65s0,.06-.05.07a.15.15,0,0,1-.11,0l-4-2.31a.29.29,0,0,1-.11-.11.2.2,0,0,1-.05-.13v-.7s0-.06.05-.07a.15.15,0,0,1,.11,0l2.71,1.56-.56-1a.15.15,0,0,1,0-.12.05.05,0,0,1,.06-.06Z" style="fill:#263238"></path><path d="M186.43,204.63a1.19,1.19,0,0,1-.14.62.55.55,0,0,1-.36.26,1.11,1.11,0,0,1-.54,0,3.31,3.31,0,0,1-.64-.26l-.56-.31-.54-.33a4,4,0,0,1-.64-.47,3.35,3.35,0,0,1-.53-.6,2.55,2.55,0,0,1-.37-.69,2.19,2.19,0,0,1-.13-.77,1.15,1.15,0,0,1,.13-.61.6.6,0,0,1,.37-.27,1.09,1.09,0,0,1,.53,0,2.78,2.78,0,0,1,.64.26l.54.3.56.33a4.86,4.86,0,0,1,.64.48,3.86,3.86,0,0,1,.54.6,3,3,0,0,1,.36.68A2.28,2.28,0,0,1,186.43,204.63Zm-2.75-1c.35.22.7.42,1,.6l.28.13a.5.5,0,0,0,.23,0,.19.19,0,0,0,.15-.08.38.38,0,0,0,.06-.24.8.8,0,0,0-.06-.3,1.35,1.35,0,0,0-.15-.26,1.21,1.21,0,0,0-.23-.22,2,2,0,0,0-.28-.2c-.34-.22-.69-.42-1-.6a1.68,1.68,0,0,0-.28-.13.7.7,0,0,0-.23,0,.24.24,0,0,0-.15.09.38.38,0,0,0-.06.24.8.8,0,0,0,.06.3,1.74,1.74,0,0,0,.15.26,1.61,1.61,0,0,0,.23.22A2,2,0,0,0,183.68,203.62Z" style="fill:#263238"></path></g><g id="freepik--dumbbell--inject-15"><polygon points="142.56 203.81 144.2 203.33 136.99 202.69 132.75 202.93 142.56 203.81" style="fill:#37474f"></polygon><polygon points="136.99 193.07 136.99 202.69 132.75 202.93 132.75 191.03 136.99 193.07" style="fill:#455a64"></polygon><polygon points="144.2 184.1 140.96 180.82 132.75 191.03 136.99 193.07 144.2 184.1" style="fill:#37474f"></polygon><polygon points="151.41 184.75 150.78 181.69 140.96 180.82 144.2 184.1 151.41 184.75" style="fill:#263238"></polygon><polygon points="151.41 194.36 151.41 184.75 144.2 184.1 136.99 193.07 136.99 202.69 144.2 203.33 151.41 194.36" style="fill:#455a64"></polygon><polygon points="132.75 202.93 127.06 199.64 127.06 187.75 132.75 191.03 132.75 202.93" style="fill:#455a64"></polygon><polygon points="140.96 180.82 132.75 191.03 127.06 187.75 135.27 177.53 140.96 180.82" style="fill:#37474f"></polygon><polygon points="150.78 181.69 145.08 178.41 135.27 177.53 140.96 180.82 150.78 181.69" style="fill:#263238"></polygon><path d="M132.89,197c0-2,.06-3.92.06-5.87l4.08-5.05,4-5.05c3.24.25,6.48.49,9.72.69-3.26-.39-6.52-.74-9.79-1.07h-.1l-.06.08-4.13,5.09-4.09,5.12,0,.05V191c0,2,0,4,.07,5.95s.09,4,.13,6C132.79,201,132.87,199,132.89,197Z" style="opacity:0.2"></path><polygon points="135.27 177.53 132.88 178 126.05 186.5 127.06 187.75 135.27 177.53" style="fill:#37474f"></polygon><polygon points="126.04 196.41 127.06 199.64 127.06 187.75 126.05 186.5 126.04 196.41" style="fill:#455a64"></polygon><g style="opacity:0.2"><path d="M127.06,199.64q-.12-3-.17-5.94c0-2,0-4,0-5.95v-.08l0-.06c1.37-1.7,2.75-3.4,4.14-5.08s2.8-3.35,4.24-5q-2,2.64-4,5.22t-4.08,5.14l0-.14c0,2,0,4,0,5.95S127.14,197.66,127.06,199.64Z"></path></g><polygon points="151.41 184.75 144.39 184.58 137.49 193.26 137.39 202.41 144.2 203.33 136.99 202.69 136.99 193.07 144.2 184.1 151.41 184.75" style="fill:#fff;opacity:0.1"></polygon><path d="M130.77,192.73a.24.24,0,0,1,.13,0,.69.69,0,0,1,.11.13l1,1.74.08.15a.3.3,0,0,1,0,.17v.66a.06.06,0,0,1,0,.07.13.13,0,0,1-.11,0l-4-2.3a.57.57,0,0,1-.11-.11.2.2,0,0,1,0-.13v-.7s0-.07,0-.08a.13.13,0,0,1,.11,0l2.7,1.56-.55-1a.24.24,0,0,1,0-.13.09.09,0,0,1,.07-.06Z" style="fill:#263238"></path><path d="M132.22,198a1.13,1.13,0,0,1-.13.61.6.6,0,0,1-.37.27,1.08,1.08,0,0,1-.53,0,4.1,4.1,0,0,1-.64-.26l-.56-.31-.54-.33a4.86,4.86,0,0,1-.64-.48,4.29,4.29,0,0,1-.54-.59,3.24,3.24,0,0,1-.36-.69,2.23,2.23,0,0,1-.14-.77,1.12,1.12,0,0,1,.14-.61.6.6,0,0,1,.36-.27,1,1,0,0,1,.54,0,3.24,3.24,0,0,1,.64.25l.54.31.56.33a4.86,4.86,0,0,1,.64.48,3.67,3.67,0,0,1,.53.59,2.88,2.88,0,0,1,.37.69A2.22,2.22,0,0,1,132.22,198Zm-2.74-1,1,.6.28.12a.7.7,0,0,0,.23,0,.24.24,0,0,0,.15-.09.35.35,0,0,0,.06-.23.73.73,0,0,0-.06-.3,1.35,1.35,0,0,0-.15-.26,2.49,2.49,0,0,0-.23-.23,2,2,0,0,0-.28-.2c-.34-.21-.69-.41-1-.6l-.28-.13a.5.5,0,0,0-.23,0,.24.24,0,0,0-.15.09.35.35,0,0,0-.06.23.73.73,0,0,0,.06.3,1.35,1.35,0,0,0,.15.26,1.25,1.25,0,0,0,.23.23A2,2,0,0,0,129.48,197Z" style="fill:#263238"></path><path d="M162.76,208.32a1.66,1.66,0,0,0,1.68-.17,5.22,5.22,0,0,0,2.38-4.12,1.68,1.68,0,0,0-.69-1.54l-20.2-11.66a1.68,1.68,0,0,0-1.69.17,5.26,5.26,0,0,0-2.37,4.12,1.67,1.67,0,0,0,.69,1.54Z" style="fill:#f0f0f0"></path><path d="M166.82,204a1.45,1.45,0,0,0-2.38-1.37,5.27,5.27,0,0,0-2.38,4.12,1.45,1.45,0,0,0,2.38,1.37A5.22,5.22,0,0,0,166.82,204Z" style="fill:#fafafa"></path><path d="M158.54,205.88l-.81-.47a1.65,1.65,0,0,1-.69-1.53,5.2,5.2,0,0,1,2.38-4.12,1.67,1.67,0,0,1,1.67-.17l.81.47a1.66,1.66,0,0,0-1.68.16,5.24,5.24,0,0,0-2.38,4.12A1.67,1.67,0,0,0,158.54,205.88Z" style="fill:#e0e0e0"></path><path d="M147.47,199.49l-.8-.46a1.67,1.67,0,0,1-.69-1.54,5.21,5.21,0,0,1,2.38-4.12,1.64,1.64,0,0,1,1.67-.16l.81.46a1.66,1.66,0,0,0-1.68.17,5.22,5.22,0,0,0-2.38,4.11A1.68,1.68,0,0,0,147.47,199.49Z" style="fill:#e0e0e0"></path><path d="M155,203.85l-4.83-2.79a1.67,1.67,0,0,1-.7-1.54,5.27,5.27,0,0,1,2.38-4.12,1.66,1.66,0,0,1,1.68-.16l4.83,2.78a1.69,1.69,0,0,0-1.68.17,5.27,5.27,0,0,0-2.38,4.12A1.67,1.67,0,0,0,155,203.85Z" style="fill:#e0e0e0"></path><polygon points="175.38 222.75 177.01 222.28 169.8 221.63 165.56 221.87 175.38 222.75" style="fill:#37474f"></polygon><polygon points="169.8 212.02 169.8 221.63 165.56 221.87 165.56 209.98 169.8 212.02" style="fill:#455a64"></polygon><polygon points="177.01 203.05 173.78 199.76 165.56 209.98 169.8 212.02 177.01 203.05" style="fill:#37474f"></polygon><polygon points="184.22 203.69 183.59 200.64 173.78 199.76 177.01 203.05 184.22 203.69" style="fill:#263238"></polygon><polygon points="184.22 213.31 184.22 203.69 177.01 203.05 169.8 212.02 169.8 221.63 177.01 222.28 184.22 213.31" style="fill:#455a64"></polygon><polygon points="165.56 221.87 159.87 218.59 159.87 206.69 165.56 209.98 165.56 221.87" style="fill:#455a64"></polygon><polygon points="173.78 199.76 165.56 209.98 159.87 206.69 168.08 196.48 173.78 199.76" style="fill:#37474f"></polygon><polygon points="183.59 200.64 177.9 197.35 168.08 196.48 173.78 199.76 183.59 200.64" style="fill:#263238"></polygon><path d="M165.7,215.93c0-2,.06-3.92.06-5.88l4.08-5,4-5q4.86.38,9.73.68c-3.26-.39-6.53-.73-9.8-1.06h-.1l-.06.08-4.13,5.08-4.09,5.12,0,.06V210c0,2,0,4,.06,6s.09,4,.13,5.94C165.61,219.89,165.68,217.91,165.7,215.93Z" style="opacity:0.2"></path><polygon points="168.08 196.48 165.69 196.94 158.86 205.45 159.87 206.69 168.08 196.48" style="fill:#37474f"></polygon><polygon points="158.86 215.35 159.87 218.59 159.87 206.69 158.86 205.45 158.86 215.35" style="fill:#455a64"></polygon><g style="opacity:0.2"><path d="M159.87,218.59c-.07-2-.14-4-.16-6s0-4-.06-5.95v-.08l0-.06q2.06-2.55,4.14-5.08c1.39-1.68,2.81-3.35,4.24-5q-2,2.63-4,5.22c-1.35,1.71-2.71,3.43-4.08,5.13l.05-.14c0,2,0,4-.05,5.95S160,216.61,159.87,218.59Z"></path></g><polygon points="184.22 203.69 177.2 203.52 170.3 212.2 170.21 221.36 177.01 222.28 169.8 221.63 169.8 212.02 177.01 203.05 184.22 203.69" style="fill:#fff;opacity:0.1"></polygon><path d="M163.59,211.67a.28.28,0,0,1,.12.05.32.32,0,0,1,.11.12l1,1.74s0,.1.09.16a.37.37,0,0,1,0,.17v.65a.07.07,0,0,1,0,.07.18.18,0,0,1-.12,0l-4-2.31a.25.25,0,0,1-.12-.11.27.27,0,0,1,0-.13v-.7a.07.07,0,0,1,0-.07.19.19,0,0,1,.12,0l2.7,1.56-.56-1a.15.15,0,0,1,0-.12.06.06,0,0,1,.06-.06Z" style="fill:#263238"></path><path d="M165,216.94a1.15,1.15,0,0,1-.14.61.6.6,0,0,1-.36.27,1.13,1.13,0,0,1-.54,0,3.59,3.59,0,0,1-.64-.26l-.55-.31-.55-.32a5.62,5.62,0,0,1-.64-.48,3.35,3.35,0,0,1-.53-.6,2.83,2.83,0,0,1-.36-.69,2,2,0,0,1-.14-.76,1.08,1.08,0,0,1,.14-.62.55.55,0,0,1,.36-.26,1.08,1.08,0,0,1,.53,0,3.08,3.08,0,0,1,.64.26l.55.3.55.33a4.28,4.28,0,0,1,.64.48,3.06,3.06,0,0,1,.54.6,2.83,2.83,0,0,1,.36.69A2.19,2.19,0,0,1,165,216.94Zm-2.75-1c.36.22.7.42,1,.6.11,0,.2.1.29.13a.45.45,0,0,0,.22,0,.16.16,0,0,0,.15-.08.38.38,0,0,0,.06-.24.8.8,0,0,0-.06-.3.73.73,0,0,0-.15-.25,1.58,1.58,0,0,0-.22-.23,2.11,2.11,0,0,0-.29-.2,10.77,10.77,0,0,0-1-.6,1.38,1.38,0,0,0-.28-.13.7.7,0,0,0-.23,0,.24.24,0,0,0-.15.09.48.48,0,0,0,0,.24,1,1,0,0,0,0,.3,1.35,1.35,0,0,0,.15.26,1.61,1.61,0,0,0,.23.22A2.83,2.83,0,0,0,162.29,215.92Z" style="fill:#263238"></path></g><polygon points="100.76 345 204.58 285.07 204.58 292.11 100.76 352.04 100.76 345" style="fill:#263238"></polygon><polygon points="204.58 285.07 224.89 296.79 224.89 303.83 204.58 292.11 204.58 285.07" style="fill:#37474f"></polygon><polygon points="121.07 356.73 224.89 296.79 224.89 303.83 121.07 363.76 121.07 356.73" style="fill:#263238"></polygon><polygon points="104.83 354.38 208.64 294.45 216.76 299.14 112.95 359.07 104.83 354.38" style="fill:#455a64"></polygon><polygon points="100.76 345 121.07 356.73 121.07 363.76 100.76 352.04 100.76 345" style="fill:#37474f"></polygon><g id="freepik--dumbbell--inject-15"><polygon points="131.65 329.23 133.44 328.71 125.51 328 120.86 328.27 131.65 329.23" style="fill:#37474f"></polygon><polygon points="125.51 317.42 125.51 328 120.86 328.27 120.86 315.18 125.51 317.42" style="fill:#455a64"></polygon><polygon points="133.44 307.56 129.89 303.94 120.86 315.18 125.51 317.42 133.44 307.56" style="fill:#37474f"></polygon><polygon points="141.38 308.26 140.68 304.91 129.89 303.94 133.44 307.56 141.38 308.26" style="fill:#263238"></polygon><polygon points="141.38 318.84 141.38 308.26 133.44 307.56 125.51 317.42 125.51 328 133.44 328.71 141.38 318.84" style="fill:#455a64"></polygon><polygon points="120.86 328.27 114.59 324.65 114.59 311.56 120.86 315.18 120.86 328.27" style="fill:#455a64"></polygon><polygon points="129.89 303.94 120.86 315.18 114.59 311.56 123.63 300.33 129.89 303.94" style="fill:#37474f"></polygon><polygon points="140.68 304.91 134.42 301.29 123.63 300.33 129.89 303.94 140.68 304.91" style="fill:#263238"></polygon><path d="M121,321.72c0-2.15.07-4.31.07-6.46l4.49-5.55,4.42-5.55c3.57.27,7.13.53,10.7.75-3.59-.43-7.18-.81-10.77-1.17h-.11l-.07.08-4.55,5.6-4.5,5.63,0,.06v.08c0,2.18,0,4.36.07,6.54s.1,4.37.14,6.55C120.9,326.09,121,323.9,121,321.72Z" style="opacity:0.2"></path><polygon points="123.63 300.33 121 300.84 113.48 310.2 114.59 311.56 123.63 300.33" style="fill:#37474f"></polygon><polygon points="113.48 321.09 114.59 324.65 114.59 311.56 113.48 310.2 113.48 321.09" style="fill:#455a64"></polygon><g style="opacity:0.2"><path d="M114.59,324.65c-.08-2.18-.15-4.36-.18-6.54s0-4.36-.06-6.54v-.09l.05-.07q2.26-2.81,4.56-5.59t4.67-5.49q-2.14,2.9-4.37,5.74t-4.48,5.65l.06-.15c0,2.18,0,4.36-.06,6.54S114.68,322.47,114.59,324.65Z"></path></g><polygon points="141.38 308.26 133.66 308.08 126.06 317.63 125.96 327.7 133.44 328.71 125.51 328 125.51 317.42 133.44 307.56 141.38 308.26" style="fill:#fff;opacity:0.1"></polygon><path d="M118.67,317.11a.22.22,0,0,1,.14.05.49.49,0,0,1,.12.13l1.12,1.92.1.17a.45.45,0,0,1,0,.19v.71c0,.05,0,.07,0,.08a.16.16,0,0,1-.13,0l-4.39-2.54a.37.37,0,0,1-.13-.12.24.24,0,0,1-.06-.14v-.77a.08.08,0,0,1,.06-.09.17.17,0,0,1,.13,0l3,1.72-.61-1.06a.16.16,0,0,1,0-.14s0-.06.07-.06Z" style="fill:#263238"></path><path d="M118.67,323.52l-.38-.26a2.7,2.7,0,0,1-.36-.33,3.86,3.86,0,0,1-.34-.42,6.11,6.11,0,0,1-.34-.53l-.72-1.24v1.48a.08.08,0,0,1,0,.08.17.17,0,0,1-.13,0l-.72-.42a.37.37,0,0,1-.13-.12.24.24,0,0,1-.06-.14v-3.11a.08.08,0,0,1,.06-.08.17.17,0,0,1,.13,0l.58.33a1.09,1.09,0,0,1,.22.17.76.76,0,0,1,.18.24l1.46,2.6a1.72,1.72,0,0,0,.32.44,2.42,2.42,0,0,0,.28.22l.13.06.17,0a.21.21,0,0,0,.15-.07.3.3,0,0,0,.06-.22.81.81,0,0,0-.06-.31,1.4,1.4,0,0,0-.15-.24,1,1,0,0,0-.17-.18l-.12-.11a.43.43,0,0,1-.13-.16.51.51,0,0,1,0-.17v-.72a.07.07,0,0,1,0-.07.14.14,0,0,1,.1,0,3,3,0,0,1,.57.43,3,3,0,0,1,.51.6,3.09,3.09,0,0,1,.38.72,2.4,2.4,0,0,1,.14.8,1.18,1.18,0,0,1-.13.61.68.68,0,0,1-.36.29,1,1,0,0,1-.51,0A2.09,2.09,0,0,1,118.67,323.52Z" style="fill:#263238"></path><path d="M151.71,333.38a1.66,1.66,0,0,0,1.68-.17,5.27,5.27,0,0,0,2.38-4.12,1.67,1.67,0,0,0-.7-1.54l-20.2-11.66a1.66,1.66,0,0,0-1.68.16,5.28,5.28,0,0,0-2.38,4.12,1.66,1.66,0,0,0,.7,1.54Z" style="fill:#f0f0f0"></path><path d="M155.77,329.09a1.45,1.45,0,0,0-2.38-1.37,5.25,5.25,0,0,0-2.38,4.12,1.45,1.45,0,0,0,2.38,1.37A5.27,5.27,0,0,0,155.77,329.09Z" style="fill:#fafafa"></path><path d="M147.48,330.93l-.8-.46a1.67,1.67,0,0,1-.7-1.54,5.28,5.28,0,0,1,2.38-4.12,1.66,1.66,0,0,1,1.68-.16l.8.46a1.67,1.67,0,0,0-1.68.17,5.21,5.21,0,0,0-2.37,4.12A1.63,1.63,0,0,0,147.48,330.93Z" style="fill:#e0e0e0"></path><path d="M136.42,324.55l-.8-.47a1.66,1.66,0,0,1-.7-1.53,5.25,5.25,0,0,1,2.38-4.12,1.69,1.69,0,0,1,1.68-.17l.8.47a1.66,1.66,0,0,0-1.68.16,5.23,5.23,0,0,0-2.37,4.12A1.65,1.65,0,0,0,136.42,324.55Z" style="fill:#e0e0e0"></path><path d="M144,328.9l-4.83-2.79a1.67,1.67,0,0,1-.69-1.53,5.22,5.22,0,0,1,2.38-4.12,1.69,1.69,0,0,1,1.68-.17l4.83,2.79a1.66,1.66,0,0,0-1.68.17,5.22,5.22,0,0,0-2.38,4.12A1.67,1.67,0,0,0,144,328.9Z" style="fill:#e0e0e0"></path><polygon points="165.8 348.94 167.6 348.42 159.66 347.71 155.01 347.97 165.8 348.94" style="fill:#37474f"></polygon><polygon points="159.66 337.13 159.66 347.71 155.01 347.97 155.01 334.89 159.66 337.13" style="fill:#455a64"></polygon><polygon points="167.6 327.26 164.04 323.65 155.01 334.89 159.66 337.13 167.6 327.26" style="fill:#37474f"></polygon><polygon points="175.53 327.97 174.83 324.61 164.04 323.65 167.6 327.26 175.53 327.97" style="fill:#263238"></polygon><polygon points="175.53 338.55 175.53 327.97 167.6 327.26 159.66 337.13 159.66 347.71 167.6 348.42 175.53 338.55" style="fill:#455a64"></polygon><polygon points="155.01 347.97 148.75 344.36 148.75 331.27 155.01 334.89 155.01 347.97" style="fill:#455a64"></polygon><polygon points="164.04 323.65 155.01 334.89 148.75 331.27 157.78 320.03 164.04 323.65" style="fill:#37474f"></polygon><polygon points="174.83 324.61 168.57 321 157.78 320.03 164.04 323.65 174.83 324.61" style="fill:#263238"></polygon><path d="M155.15,341.43c0-2.16.07-4.31.08-6.47l4.48-5.54,4.42-5.56c3.57.28,7.13.54,10.7.75-3.58-.42-7.18-.8-10.77-1.17H164l-.07.09-4.54,5.6-4.5,5.63-.05.06v.08c0,2.18,0,4.36.07,6.54s.1,4.36.15,6.54C155.05,345.79,155.14,343.61,155.15,341.43Z" style="opacity:0.2"></path><polygon points="157.78 320.03 155.15 320.55 147.63 329.9 148.75 331.27 157.78 320.03" style="fill:#37474f"></polygon><polygon points="147.63 340.8 148.75 344.36 148.75 331.27 147.63 329.9 147.63 340.8" style="fill:#455a64"></polygon><g style="opacity:0.2"><path d="M148.75,344.36c-.09-2.18-.16-4.37-.19-6.55s0-4.36-.06-6.54v-.08l.06-.07c1.5-1.87,3-3.74,4.55-5.59s3.09-3.68,4.67-5.5c-1.43,1.94-2.89,3.85-4.36,5.75s-3,3.77-4.48,5.64l.05-.15c0,2.18,0,4.36-.06,6.54S148.83,342.18,148.75,344.36Z"></path></g><polygon points="175.53 327.97 167.81 327.78 160.22 337.33 160.11 347.4 167.6 348.42 159.66 347.71 159.66 337.13 167.6 327.26 175.53 327.97" style="fill:#fff;opacity:0.1"></polygon><path d="M152.83,336.82s.08,0,.13.05a.37.37,0,0,1,.12.13l1.13,1.91s.06.11.09.17a.38.38,0,0,1,.06.19V340a.08.08,0,0,1-.06.08.17.17,0,0,1-.13,0l-4.39-2.53a.49.49,0,0,1-.13-.12.24.24,0,0,1-.05-.15v-.77s0-.07.05-.08a.17.17,0,0,1,.13,0l3,1.71-.61-1.05a.27.27,0,0,1,0-.14.07.07,0,0,1,.07-.06Z" style="fill:#263238"></path><path d="M152.83,343.22a2.49,2.49,0,0,1-.38-.25,2.82,2.82,0,0,1-.36-.33,3,3,0,0,1-.34-.42,4.56,4.56,0,0,1-.34-.54l-.72-1.24v1.48a.08.08,0,0,1-.06.08.17.17,0,0,1-.13,0l-.72-.41a.49.49,0,0,1-.13-.12.24.24,0,0,1-.05-.15v-3.11s0-.07.05-.08a.17.17,0,0,1,.13,0l.58.34a1.06,1.06,0,0,1,.41.4l1.45,2.6a2.21,2.21,0,0,0,.32.45,1.61,1.61,0,0,0,.29.21l.13.06a.35.35,0,0,0,.17,0,.21.21,0,0,0,.14-.07.29.29,0,0,0,.07-.23.6.6,0,0,0-.07-.3,1.17,1.17,0,0,0-.14-.25l-.17-.17-.13-.11a.53.53,0,0,1-.12-.17.45.45,0,0,1,0-.16v-.72s0-.06,0-.07a.15.15,0,0,1,.11,0,3.18,3.18,0,0,1,.56.44,3.4,3.4,0,0,1,.52.6,3.06,3.06,0,0,1,.37.72,2.14,2.14,0,0,1,.14.8,1.14,1.14,0,0,1-.13.6.64.64,0,0,1-.35.3,1,1,0,0,1-.51,0A2.32,2.32,0,0,1,152.83,343.22Z" style="fill:#263238"></path></g><g id="freepik--dumbbell--inject-15"><polygon points="109.16 342.18 110.96 341.66 103.02 340.95 98.37 341.22 109.16 342.18" style="fill:#37474f"></polygon><polygon points="103.02 330.38 103.02 340.95 98.37 341.22 98.37 328.13 103.02 330.38" style="fill:#455a64"></polygon><polygon points="110.96 320.51 107.4 316.89 98.37 328.13 103.02 330.38 110.96 320.51" style="fill:#37474f"></polygon><polygon points="118.89 321.21 118.19 317.86 107.4 316.89 110.96 320.51 118.89 321.21" style="fill:#263238"></polygon><polygon points="118.89 331.79 118.89 321.21 110.96 320.51 103.02 330.38 103.02 340.95 110.96 341.66 118.89 331.79" style="fill:#455a64"></polygon><polygon points="98.37 341.22 92.11 337.6 92.11 324.52 98.37 328.13 98.37 341.22" style="fill:#455a64"></polygon><polygon points="107.4 316.89 98.37 328.13 92.11 324.52 101.14 313.28 107.4 316.89" style="fill:#37474f"></polygon><polygon points="118.19 317.86 111.93 314.24 101.14 313.28 107.4 316.89 118.19 317.86" style="fill:#263238"></polygon><path d="M98.51,334.67c0-2.15.07-4.31.08-6.46l4.48-5.55,4.42-5.55c3.57.27,7.13.53,10.7.75-3.59-.43-7.18-.81-10.77-1.17h-.11l-.07.08-4.54,5.6L98.2,328l0,.06v.08c0,2.18,0,4.36.07,6.54s.1,4.37.15,6.55C98.41,339,98.49,336.86,98.51,334.67Z" style="opacity:0.2"></path><polygon points="101.14 313.28 98.51 313.79 90.99 323.15 92.11 324.52 101.14 313.28" style="fill:#37474f"></polygon><polygon points="90.99 334.04 92.11 337.6 92.11 324.52 90.99 323.15 90.99 334.04" style="fill:#455a64"></polygon><g style="opacity:0.2"><path d="M92.11,337.6c-.09-2.18-.16-4.36-.19-6.54s0-4.36-.06-6.54v-.09l.06-.07q2.25-2.81,4.55-5.59t4.67-5.49c-1.43,1.93-2.89,3.85-4.36,5.74s-3,3.77-4.48,5.65l0-.15c0,2.18,0,4.36-.06,6.54S92.19,335.42,92.11,337.6Z"></path></g><polygon points="118.89 321.21 111.17 321.03 103.58 330.58 103.47 340.65 110.96 341.66 103.02 340.95 103.02 330.38 110.96 320.51 118.89 321.21" style="fill:#fff;opacity:0.1"></polygon><path d="M96.18,330.06a.2.2,0,0,1,.14.05.41.41,0,0,1,.12.14l1.12,1.91.1.17a.36.36,0,0,1,0,.19v.71s0,.08,0,.09a.17.17,0,0,1-.13,0l-4.39-2.54a.37.37,0,0,1-.13-.12.24.24,0,0,1-.06-.14v-.77a.07.07,0,0,1,.06-.08.13.13,0,0,1,.13,0l3,1.72-.61-1.06a.19.19,0,0,1,0-.13s0-.07.07-.07Z" style="fill:#263238"></path><path d="M96.18,336.47a4.28,4.28,0,0,1-.38-.26,2.6,2.6,0,0,1-.35-.32,5.41,5.41,0,0,1-.35-.43c-.11-.15-.22-.33-.34-.53L94,333.69v1.48a.08.08,0,0,1-.05.08.17.17,0,0,1-.13,0l-.72-.42a.37.37,0,0,1-.13-.12.24.24,0,0,1-.06-.14v-3.11a.08.08,0,0,1,.06-.08.17.17,0,0,1,.13,0l.58.33a1.63,1.63,0,0,1,.22.17.76.76,0,0,1,.18.24l1.46,2.6a2,2,0,0,0,.32.44,1.67,1.67,0,0,0,.28.22l.14.06a.47.47,0,0,0,.17,0,.17.17,0,0,0,.14-.07.3.3,0,0,0,.06-.22.81.81,0,0,0-.06-.31,1,1,0,0,0-.15-.24,1.45,1.45,0,0,0-.16-.18l-.13-.11a.51.51,0,0,1-.12-.16.35.35,0,0,1,0-.17v-.72a.07.07,0,0,1,0-.07.14.14,0,0,1,.1,0,3,3,0,0,1,.57.43,3.8,3.8,0,0,1,.52.6,3.49,3.49,0,0,1,.37.72,2.4,2.4,0,0,1,.14.8,1.18,1.18,0,0,1-.13.61.65.65,0,0,1-.35.29,1,1,0,0,1-.51,0A2,2,0,0,1,96.18,336.47Z" style="fill:#263238"></path><path d="M129.22,346.33a1.66,1.66,0,0,0,1.68-.17,5.24,5.24,0,0,0,2.38-4.12,1.67,1.67,0,0,0-.7-1.54l-20.2-11.66a1.68,1.68,0,0,0-1.68.16,5.28,5.28,0,0,0-2.38,4.13,1.69,1.69,0,0,0,.7,1.54Z" style="fill:#f0f0f0"></path><path d="M133.28,342a1.45,1.45,0,0,0-2.38-1.37,5.27,5.27,0,0,0-2.38,4.12,1.45,1.45,0,0,0,2.38,1.37A5.24,5.24,0,0,0,133.28,342Z" style="fill:#fafafa"></path><path d="M125,343.88l-.8-.46a1.64,1.64,0,0,1-.69-1.54,5.21,5.21,0,0,1,2.37-4.11,1.64,1.64,0,0,1,1.68-.17l.8.46a1.67,1.67,0,0,0-1.67.17,5.2,5.2,0,0,0-2.38,4.12A1.65,1.65,0,0,0,125,343.88Z" style="fill:#e0e0e0"></path><path d="M113.93,337.5l-.8-.46a1.69,1.69,0,0,1-.7-1.54,5.25,5.25,0,0,1,2.38-4.12,1.69,1.69,0,0,1,1.68-.17l.8.47a1.66,1.66,0,0,0-1.68.16,5.23,5.23,0,0,0-2.37,4.12A1.67,1.67,0,0,0,113.93,337.5Z" style="fill:#e0e0e0"></path><path d="M121.48,341.85l-4.83-2.78a1.69,1.69,0,0,1-.7-1.54,5.22,5.22,0,0,1,2.38-4.12,1.69,1.69,0,0,1,1.68-.17l4.83,2.79a1.69,1.69,0,0,0-1.68.17,5.22,5.22,0,0,0-2.38,4.12A1.66,1.66,0,0,0,121.48,341.85Z" style="fill:#e0e0e0"></path><polygon points="143.31 361.89 145.11 361.37 137.18 360.66 132.52 360.92 143.31 361.89" style="fill:#37474f"></polygon><polygon points="137.18 350.08 137.18 360.66 132.52 360.92 132.52 347.84 137.18 350.08" style="fill:#455a64"></polygon><polygon points="145.11 340.21 141.55 336.6 132.52 347.84 137.18 350.08 145.11 340.21" style="fill:#37474f"></polygon><polygon points="153.04 340.92 152.34 337.56 141.55 336.6 145.11 340.21 153.04 340.92" style="fill:#263238"></polygon><polygon points="153.04 351.5 153.04 340.92 145.11 340.21 137.18 350.08 137.18 360.66 145.11 361.37 153.04 351.5" style="fill:#455a64"></polygon><polygon points="132.52 360.92 126.26 357.31 126.26 344.22 132.52 347.84 132.52 360.92" style="fill:#455a64"></polygon><polygon points="141.55 336.6 132.52 347.84 126.26 344.22 135.29 332.99 141.55 336.6" style="fill:#37474f"></polygon><polygon points="152.34 337.56 146.08 333.95 135.29 332.99 141.55 336.6 152.34 337.56" style="fill:#263238"></polygon><path d="M132.67,354.38c0-2.16.07-4.31.07-6.46l4.48-5.55,4.43-5.56c3.56.28,7.13.54,10.7.75-3.59-.42-7.19-.8-10.78-1.17h-.11l-.07.09-4.54,5.6-4.5,5.63,0,.06v.08c0,2.18,0,4.36.07,6.54s.1,4.36.15,6.54C132.57,358.74,132.65,356.56,132.67,354.38Z" style="opacity:0.2"></path><polygon points="135.29 332.99 132.66 333.5 125.14 342.85 126.26 344.22 135.29 332.99" style="fill:#37474f"></polygon><polygon points="125.14 353.75 126.26 357.31 126.26 344.22 125.14 342.85 125.14 353.75" style="fill:#455a64"></polygon><g style="opacity:0.2"><path d="M126.26,357.31c-.09-2.18-.15-4.37-.19-6.55s0-4.36,0-6.54v-.08l.06-.07q2.25-2.81,4.55-5.59t4.67-5.5c-1.43,1.94-2.88,3.85-4.36,5.75s-3,3.77-4.48,5.64l0-.15c0,2.18,0,4.36-.06,6.54S126.34,355.13,126.26,357.31Z"></path></g><polygon points="153.04 340.92 145.32 340.73 137.73 350.28 137.63 360.35 145.11 361.37 137.18 360.66 137.18 350.08 145.11 340.21 153.04 340.92" style="fill:#fff;opacity:0.1"></polygon><path d="M130.34,349.77s.08,0,.13.05a.4.4,0,0,1,.13.13l1.12,1.91.09.17a.38.38,0,0,1,.06.19v.72a.08.08,0,0,1-.06.08.18.18,0,0,1-.13,0l-4.39-2.53a.49.49,0,0,1-.13-.12.33.33,0,0,1,0-.15v-.77a.08.08,0,0,1,0-.08.17.17,0,0,1,.13,0l3,1.71-.61-1.05a.27.27,0,0,1,0-.14.08.08,0,0,1,.08-.06Z" style="fill:#263238"></path><path d="M130.34,356.17a3.11,3.11,0,0,1-.38-.25,3.6,3.6,0,0,1-.36-.33,3.86,3.86,0,0,1-.34-.42,4.56,4.56,0,0,1-.34-.54l-.72-1.24v1.48a.07.07,0,0,1-.06.08.22.22,0,0,1-.13,0l-.72-.42a.49.49,0,0,1-.13-.12.33.33,0,0,1,0-.15v-3.1a.09.09,0,0,1,0-.09.17.17,0,0,1,.13,0l.59.34a2.39,2.39,0,0,1,.22.16,1.08,1.08,0,0,1,.18.24l1.45,2.6a1.86,1.86,0,0,0,.33.45,1.28,1.28,0,0,0,.28.21l.13.07a.51.51,0,0,0,.17,0,.26.26,0,0,0,.15-.07.33.33,0,0,0,.06-.23.6.6,0,0,0-.07-.3.89.89,0,0,0-.14-.24,1.49,1.49,0,0,0-.17-.18l-.12-.11a.39.39,0,0,1-.13-.17.45.45,0,0,1,0-.16V353s0-.06,0-.07a.15.15,0,0,1,.11,0,3.64,3.64,0,0,1,.57.44,3.36,3.36,0,0,1,.51.6,3.06,3.06,0,0,1,.37.72,2.18,2.18,0,0,1,.15.8,1.17,1.17,0,0,1-.14.61.63.63,0,0,1-.35.29,1,1,0,0,1-.51,0A2.48,2.48,0,0,1,130.34,356.17Z" style="fill:#263238"></path></g><g id="freepik--dumbbell--inject-15"><polygon points="189.28 295.77 191.26 295.2 182.54 294.42 177.41 294.71 189.28 295.77" style="fill:#37474f"></polygon><polygon points="182.54 282.79 182.54 294.42 177.41 294.71 177.41 280.32 182.54 282.79" style="fill:#455a64"></polygon><polygon points="191.26 271.93 187.35 267.96 177.41 280.32 182.54 282.79 191.26 271.93" style="fill:#37474f"></polygon><polygon points="199.99 272.71 199.22 269.02 187.35 267.96 191.26 271.93 199.99 272.71" style="fill:#263238"></polygon><polygon points="199.99 284.35 199.99 272.71 191.26 271.93 182.54 282.79 182.54 294.42 191.26 295.2 199.99 284.35" style="fill:#455a64"></polygon><polygon points="177.41 294.71 170.53 290.74 170.53 276.34 177.41 280.32 177.41 294.71" style="fill:#455a64"></polygon><polygon points="187.35 267.96 177.41 280.32 170.53 276.34 180.46 263.98 187.35 267.96" style="fill:#37474f"></polygon><polygon points="199.22 269.02 192.33 265.04 180.46 263.98 187.35 267.96 199.22 269.02" style="fill:#263238"></polygon><path d="M177.58,287.52c0-2.37.07-4.75.07-7.12l4.94-6.1,4.86-6.11q5.88.46,11.77.83c-3.95-.47-7.9-.89-11.85-1.29h-.12l-.08.09-5,6.16-4.94,6.2-.06.06v.09c0,2.4.05,4.8.08,7.2s.11,4.79.16,7.19C177.47,292.31,177.55,289.91,177.58,287.52Z" style="opacity:0.2"></path><polygon points="180.46 263.98 177.57 264.55 169.3 274.84 170.53 276.34 180.46 263.98" style="fill:#37474f"></polygon><polygon points="169.3 286.82 170.53 290.74 170.53 276.34 169.3 274.84 169.3 286.82" style="fill:#455a64"></polygon><g style="opacity:0.2"><path d="M170.53,290.74q-.15-3.6-.21-7.2c0-2.4,0-4.8-.06-7.2v-.09l.06-.08c1.65-2.06,3.33-4.1,5-6.14s3.39-4.06,5.13-6c-1.57,2.13-3.17,4.23-4.8,6.32s-3.27,4.15-4.93,6.21l.06-.17c0,2.4,0,4.8-.06,7.2S170.62,288.34,170.53,290.74Z"></path></g><polygon points="199.99 272.71 191.49 272.5 183.15 283.01 183.03 294.09 191.26 295.2 182.54 294.42 182.54 282.79 191.26 271.93 199.99 272.71" style="fill:#fff;opacity:0.1"></polygon><path d="M175,282.48a.26.26,0,0,1,.15,0,.47.47,0,0,1,.13.15l1.23,2.11s.07.11.11.19a.41.41,0,0,1,.06.2V286a.08.08,0,0,1-.06.09.19.19,0,0,1-.14,0l-4.83-2.79a.47.47,0,0,1-.15-.13.29.29,0,0,1-.06-.16v-.85a.08.08,0,0,1,.06-.09.22.22,0,0,1,.15,0l3.26,1.89-.67-1.16a.24.24,0,0,1,0-.15c0-.05,0-.07.08-.07Z" style="fill:#263238"></path><path d="M173,285.87l-.14,0a.35.35,0,0,0-.14.06.26.26,0,0,0-.11.12.49.49,0,0,0-.05.23,1,1,0,0,0,.05.29,1.38,1.38,0,0,0,.12.29,2.34,2.34,0,0,0,.2.27,1.69,1.69,0,0,0,.29.22c.17.09.3.12.41.06s.16-.17.16-.37a.63.63,0,0,0,0-.19l-.06-.19-.06-.16a.2.2,0,0,1,0-.11v-1c0-.06,0-.09,0-.1a.19.19,0,0,1,.15,0l2.67,1.73a.62.62,0,0,1,.14.14.26.26,0,0,1,.06.15v2.78a.08.08,0,0,1-.06.08.13.13,0,0,1-.14,0l-.8-.45a.62.62,0,0,1-.14-.14.27.27,0,0,1-.06-.16v-1.88l-.66-.43a2,2,0,0,1,.12.34,1.55,1.55,0,0,1-.07,1,.72.72,0,0,1-.35.36.88.88,0,0,1-.55.05,2.26,2.26,0,0,1-.75-.31,3.64,3.64,0,0,1-1.73-2.14,2.84,2.84,0,0,1-.12-.81,1.61,1.61,0,0,1,.13-.71.77.77,0,0,1,.35-.38.86.86,0,0,1,.51-.08,1.83,1.83,0,0,1,.59.21.32.32,0,0,1,.12.11.27.27,0,0,1,0,.13v.82a.14.14,0,0,1,0,.13Z" style="fill:#263238"></path><path d="M209.53,298.87a1.68,1.68,0,0,0,1.69-.17,5.24,5.24,0,0,0,2.37-4.12,1.67,1.67,0,0,0-.69-1.54l-20.2-11.66a1.66,1.66,0,0,0-1.68.17,5.24,5.24,0,0,0-2.38,4.12,1.67,1.67,0,0,0,.69,1.54Z" style="fill:#f0f0f0"></path><path d="M213.59,294.58a1.44,1.44,0,0,0-2.37-1.37,5.24,5.24,0,0,0-2.38,4.12,1.45,1.45,0,0,0,2.38,1.37A5.24,5.24,0,0,0,213.59,294.58Z" style="fill:#fafafa"></path><path d="M205.31,296.43l-.81-.47a1.67,1.67,0,0,1-.69-1.53,5.22,5.22,0,0,1,2.38-4.12,1.69,1.69,0,0,1,1.68-.17l.8.46a1.69,1.69,0,0,0-1.68.17,5.24,5.24,0,0,0-2.38,4.12A1.67,1.67,0,0,0,205.31,296.43Z" style="fill:#e0e0e0"></path><path d="M194.25,290l-.81-.46a1.69,1.69,0,0,1-.69-1.54,5.24,5.24,0,0,1,2.38-4.12,1.66,1.66,0,0,1,1.68-.16l.8.46a1.64,1.64,0,0,0-1.68.17,5.22,5.22,0,0,0-2.38,4.11A1.66,1.66,0,0,0,194.25,290Z" style="fill:#e0e0e0"></path><path d="M201.79,294.4,197,291.61a1.65,1.65,0,0,1-.69-1.54,5.23,5.23,0,0,1,2.37-4.12,1.66,1.66,0,0,1,1.68-.16l4.83,2.78a1.69,1.69,0,0,0-1.68.17,5.23,5.23,0,0,0-2.37,4.12A1.65,1.65,0,0,0,201.79,294.4Z" style="fill:#e0e0e0"></path><polygon points="224.88 316.3 226.86 315.73 218.14 314.95 213.01 315.24 224.88 316.3" style="fill:#37474f"></polygon><polygon points="218.14 303.31 218.14 314.95 213.01 315.24 213.01 300.84 218.14 303.31" style="fill:#455a64"></polygon><polygon points="226.86 292.45 222.95 288.48 213.01 300.84 218.14 303.31 226.86 292.45" style="fill:#37474f"></polygon><polygon points="235.59 293.24 234.82 289.54 222.95 288.48 226.86 292.45 235.59 293.24" style="fill:#263238"></polygon><polygon points="235.59 304.87 235.59 293.24 226.86 292.45 218.14 303.31 218.14 314.95 226.86 315.73 235.59 304.87" style="fill:#455a64"></polygon><polygon points="213.01 315.24 206.13 311.26 206.13 296.87 213.01 300.84 213.01 315.24" style="fill:#455a64"></polygon><polygon points="222.95 288.48 213.01 300.84 206.13 296.87 216.06 284.51 222.95 288.48" style="fill:#37474f"></polygon><polygon points="234.82 289.54 227.93 285.57 216.06 284.51 222.95 288.48 234.82 289.54" style="fill:#263238"></polygon><path d="M213.18,308c0-2.37.07-4.74.07-7.11l4.94-6.1,4.86-6.11c3.92.3,7.84.59,11.77.82-3.95-.47-7.9-.88-11.85-1.28l-.12,0-.08.1-5,6.16-4.94,6.19-.06.07v.08c0,2.4,0,4.8.08,7.2s.11,4.8.16,7.2C213.06,312.84,213.15,310.44,213.18,308Z" style="opacity:0.2"></path><polygon points="216.06 284.51 213.17 285.07 204.9 295.36 206.13 296.87 216.06 284.51" style="fill:#37474f"></polygon><polygon points="204.9 307.35 206.13 311.26 206.13 296.87 204.9 295.36 204.9 307.35" style="fill:#455a64"></polygon><g style="opacity:0.2"><path d="M206.12,311.26q-.13-3.6-.2-7.2c0-2.4,0-4.79-.06-7.19v-.1l.06-.07c1.65-2.06,3.33-4.11,5-6.15s3.4-4.05,5.14-6c-1.57,2.12-3.17,4.23-4.8,6.31S208,295,206.33,297l.06-.16c0,2.4,0,4.79-.06,7.19S206.22,308.86,206.12,311.26Z"></path></g><polygon points="235.59 293.24 227.09 293.03 218.74 303.54 218.63 314.61 226.86 315.73 218.14 314.95 218.14 303.31 226.86 292.45 235.59 293.24" style="fill:#fff;opacity:0.1"></polygon><path d="M210.61,303a.21.21,0,0,1,.15.05.47.47,0,0,1,.13.15l1.24,2.1.1.19a.42.42,0,0,1,.06.21v.79a.1.1,0,0,1-.06.09.19.19,0,0,1-.14,0l-4.83-2.79a.47.47,0,0,1-.14-.14.22.22,0,0,1-.06-.15v-.85c0-.05,0-.08.06-.09a.2.2,0,0,1,.14,0l3.27,1.88-.68-1.15a.25.25,0,0,1,0-.16.08.08,0,0,1,.08-.07Z" style="fill:#263238"></path><path d="M208.61,306.4l-.14,0a.34.34,0,0,0-.14.05.36.36,0,0,0-.11.13.47.47,0,0,0,0,.23,1,1,0,0,0,0,.28,1.48,1.48,0,0,0,.12.29,1.35,1.35,0,0,0,.2.27,1.06,1.06,0,0,0,.29.22.44.44,0,0,0,.41.07c.11,0,.16-.18.16-.38a.68.68,0,0,0,0-.19l-.06-.18-.06-.16a.41.41,0,0,1,0-.12v-1a.08.08,0,0,1,.06-.09s.08,0,.14,0l2.67,1.74a.57.57,0,0,1,.14.13.29.29,0,0,1,.06.16v2.77a.08.08,0,0,1-.06.09.19.19,0,0,1-.14,0l-.79-.46a.37.37,0,0,1-.15-.13.29.29,0,0,1-.06-.16v-1.88l-.66-.43a1.7,1.7,0,0,1,.12.34,1.49,1.49,0,0,1,0,.36,1.4,1.4,0,0,1-.12.62.71.71,0,0,1-.34.36.93.93,0,0,1-.56.05,2.44,2.44,0,0,1-.75-.3,3.72,3.72,0,0,1-.8-.6,4,4,0,0,1-.57-.74,3.34,3.34,0,0,1-.36-.8,2.94,2.94,0,0,1-.12-.81,1.61,1.61,0,0,1,.13-.71.9.9,0,0,1,.35-.39A.86.86,0,0,1,208,305a1.55,1.55,0,0,1,.6.21.35.35,0,0,1,.11.1.2.2,0,0,1,0,.13v.83c0,.07,0,.11,0,.13Z" style="fill:#263238"></path></g><g id="freepik--dumbbell--inject-15"><polygon points="161.98 311.54 163.95 310.97 155.23 310.19 150.1 310.48 161.98 311.54" style="fill:#37474f"></polygon><polygon points="155.23 298.56 155.23 310.19 150.1 310.48 150.11 296.09 155.23 298.56" style="fill:#455a64"></polygon><polygon points="163.95 287.7 160.04 283.73 150.11 296.09 155.23 298.56 163.95 287.7" style="fill:#37474f"></polygon><polygon points="172.68 288.48 171.91 284.79 160.04 283.73 163.95 287.7 172.68 288.48" style="fill:#263238"></polygon><polygon points="172.68 300.12 172.68 288.48 163.95 287.7 155.23 298.56 155.23 310.19 163.95 310.97 172.68 300.12" style="fill:#455a64"></polygon><polygon points="150.1 310.48 143.22 306.51 143.22 292.11 150.11 296.09 150.1 310.48" style="fill:#455a64"></polygon><polygon points="160.04 283.73 150.11 296.09 143.22 292.11 153.15 279.75 160.04 283.73" style="fill:#37474f"></polygon><polygon points="171.91 284.79 165.03 280.81 153.15 279.75 160.04 283.73 171.91 284.79" style="fill:#263238"></polygon><path d="M150.27,303.29c0-2.37.07-4.75.08-7.12l4.93-6.1,4.86-6.11q5.9.46,11.77.83c-3.94-.47-7.89-.89-11.85-1.29h-.12l-.08.1-5,6.15-5,6.2-.06.06v.09c0,2.4,0,4.8.08,7.2s.11,4.79.16,7.19C150.16,308.08,150.25,305.68,150.27,303.29Z" style="opacity:0.2"></path><polygon points="153.15 279.75 150.26 280.32 141.99 290.61 143.22 292.11 153.15 279.75" style="fill:#37474f"></polygon><polygon points="141.99 302.59 143.22 306.51 143.22 292.11 141.99 290.61 141.99 302.59" style="fill:#455a64"></polygon><g style="opacity:0.2"><path d="M143.22,306.51q-.15-3.6-.2-7.2c-.06-2.4-.05-4.8-.07-7.2V292l.06-.08c1.66-2.06,3.33-4.1,5-6.14s3.39-4.06,5.13-6.05c-1.57,2.13-3.17,4.23-4.8,6.32s-3.27,4.15-4.92,6.21l0-.17c0,2.4,0,4.8-.06,7.2S143.31,304.11,143.22,306.51Z"></path></g><polygon points="172.68 288.48 164.19 288.27 155.84 298.78 155.72 309.86 163.95 310.97 155.23 310.19 155.23 298.56 163.95 287.7 172.68 288.48" style="fill:#fff;opacity:0.1"></polygon><path d="M147.7,298.25a.22.22,0,0,1,.15.06.57.57,0,0,1,.13.14l1.24,2.11.1.19a.41.41,0,0,1,.06.2v.79a.08.08,0,0,1-.06.09.19.19,0,0,1-.14,0L144.35,299a.35.35,0,0,1-.14-.13.29.29,0,0,1-.06-.16v-.85a.08.08,0,0,1,.06-.09.2.2,0,0,1,.14,0l3.27,1.89-.68-1.16a.34.34,0,0,1,0-.15.08.08,0,0,1,.08-.07Z" style="fill:#263238"></path><path d="M145.7,301.64l-.14,0a.35.35,0,0,0-.14.06.26.26,0,0,0-.11.12.5.5,0,0,0,0,.23,1,1,0,0,0,0,.29,2.24,2.24,0,0,0,.12.29,2.34,2.34,0,0,0,.2.27,1.69,1.69,0,0,0,.29.22c.17.09.31.12.41.06s.16-.17.16-.37a.42.42,0,0,0,0-.19l-.06-.19-.06-.16a.36.36,0,0,1,0-.11v-1c0-.06,0-.09.06-.1a.17.17,0,0,1,.14,0l2.67,1.73a.62.62,0,0,1,.14.14.26.26,0,0,1,.06.15v2.78a.08.08,0,0,1-.06.08.13.13,0,0,1-.14,0l-.79-.45a.4.4,0,0,1-.15-.14.26.26,0,0,1-.06-.15v-1.89l-.66-.43a2,2,0,0,1,.12.34,1.55,1.55,0,0,1-.07,1,.71.71,0,0,1-.34.36.93.93,0,0,1-.56.05,2.26,2.26,0,0,1-.75-.31,3.66,3.66,0,0,1-.79-.6,3.38,3.38,0,0,1-.58-.74,3.18,3.18,0,0,1-.36-.8,2.84,2.84,0,0,1-.12-.81,1.61,1.61,0,0,1,.13-.71.82.82,0,0,1,.35-.38.86.86,0,0,1,.51-.08,2,2,0,0,1,.6.21.38.38,0,0,1,.11.11.2.2,0,0,1,0,.13v.82c0,.07,0,.11,0,.13Z" style="fill:#263238"></path><path d="M182.23,314.64a1.66,1.66,0,0,0,1.68-.17,5.25,5.25,0,0,0,2.38-4.12,1.67,1.67,0,0,0-.7-1.54l-20.2-11.66a1.66,1.66,0,0,0-1.68.17,5.24,5.24,0,0,0-2.38,4.12A1.67,1.67,0,0,0,162,303Z" style="fill:#f0f0f0"></path><path d="M186.29,310.35a1.45,1.45,0,0,0-2.38-1.37,5.24,5.24,0,0,0-2.38,4.12,1.45,1.45,0,0,0,2.38,1.37A5.25,5.25,0,0,0,186.29,310.35Z" style="fill:#fafafa"></path><path d="M178,312.2l-.8-.47a1.66,1.66,0,0,1-.7-1.53,5.22,5.22,0,0,1,2.38-4.12,1.69,1.69,0,0,1,1.68-.17l.8.46a1.69,1.69,0,0,0-1.68.17,5.27,5.27,0,0,0-2.38,4.12A1.67,1.67,0,0,0,178,312.2Z" style="fill:#e0e0e0"></path><path d="M166.94,305.81l-.8-.46a1.67,1.67,0,0,1-.7-1.54,5.24,5.24,0,0,1,2.38-4.12,1.66,1.66,0,0,1,1.68-.16l.8.46a1.64,1.64,0,0,0-1.68.17,5.25,5.25,0,0,0-2.38,4.11A1.66,1.66,0,0,0,166.94,305.81Z" style="fill:#e0e0e0"></path><path d="M174.48,310.17l-4.83-2.79a1.67,1.67,0,0,1-.69-1.54,5.21,5.21,0,0,1,2.38-4.12,1.64,1.64,0,0,1,1.67-.16l4.83,2.78a1.67,1.67,0,0,0-1.67.17,5.21,5.21,0,0,0-2.38,4.12A1.67,1.67,0,0,0,174.48,310.17Z" style="fill:#e0e0e0"></path><polygon points="197.58 332.07 199.55 331.5 190.83 330.72 185.71 331.01 197.58 332.07" style="fill:#37474f"></polygon><polygon points="190.83 319.08 190.83 330.72 185.71 331.01 185.71 316.61 190.83 319.08" style="fill:#455a64"></polygon><polygon points="199.55 308.23 195.64 304.25 185.71 316.61 190.83 319.08 199.55 308.23" style="fill:#37474f"></polygon><polygon points="208.28 309 207.51 305.31 195.64 304.25 199.55 308.23 208.28 309" style="fill:#263238"></polygon><polygon points="208.28 320.64 208.28 309 199.55 308.23 190.83 319.08 190.83 330.72 199.55 331.5 208.28 320.64" style="fill:#455a64"></polygon><polygon points="185.71 331.01 178.82 327.03 178.82 312.64 185.71 316.61 185.71 331.01" style="fill:#455a64"></polygon><polygon points="195.64 304.25 185.71 316.61 178.82 312.64 188.75 300.28 195.64 304.25" style="fill:#37474f"></polygon><polygon points="207.51 305.31 200.63 301.34 188.75 300.28 195.64 304.25 207.51 305.31" style="fill:#263238"></polygon><path d="M185.87,323.81c0-2.37.07-4.74.08-7.11l4.93-6.1,4.86-6.11c3.92.3,7.85.59,11.77.82-3.94-.47-7.9-.88-11.85-1.28l-.12,0-.08.1-5,6.16-4.95,6.19-.06.07v.08c0,2.4,0,4.8.08,7.2s.11,4.8.16,7.2C185.76,328.61,185.85,326.21,185.87,323.81Z" style="opacity:0.2"></path><polygon points="188.75 300.28 185.86 300.84 177.59 311.13 178.82 312.64 188.75 300.28" style="fill:#37474f"></polygon><polygon points="177.59 323.12 178.82 327.03 178.82 312.64 177.59 311.13 177.59 323.12" style="fill:#455a64"></polygon><g style="opacity:0.2"><path d="M178.82,327q-.15-3.6-.2-7.2c-.06-2.4-.05-4.79-.07-7.19v-.1l.06-.07q2.49-3.09,5-6.15c1.68-2,3.39-4.05,5.13-6-1.57,2.12-3.17,4.23-4.8,6.31s-3.27,4.15-4.92,6.21l.05-.16c0,2.4,0,4.79-.06,7.19S178.91,324.63,178.82,327Z"></path></g><polygon points="208.28 309 199.78 308.8 191.44 319.31 191.32 330.38 199.55 331.5 190.83 330.72 190.83 319.08 199.55 308.23 208.28 309" style="fill:#fff;opacity:0.1"></polygon><path d="M183.3,318.78a.18.18,0,0,1,.15.05.47.47,0,0,1,.13.15l1.24,2.1.1.19a.42.42,0,0,1,.06.21v.79a.09.09,0,0,1-.06.09.2.2,0,0,1-.14,0L180,319.54a.47.47,0,0,1-.14-.14.26.26,0,0,1-.06-.15v-.85a.08.08,0,0,1,.06-.09.19.19,0,0,1,.14,0l3.27,1.89-.68-1.16a.34.34,0,0,1,0-.16.1.1,0,0,1,.08-.07Z" style="fill:#263238"></path><path d="M181.3,322.17l-.14,0a.39.39,0,0,0-.14.05.36.36,0,0,0-.11.13.47.47,0,0,0,0,.23,1,1,0,0,0,0,.28,1.48,1.48,0,0,0,.12.29,1.39,1.39,0,0,0,.21.27,1,1,0,0,0,.28.22.46.46,0,0,0,.42.07c.1-.05.16-.18.16-.38a.68.68,0,0,0,0-.19A1.34,1.34,0,0,0,182,323l-.06-.16a.35.35,0,0,1,0-.12v-1a.08.08,0,0,1,.06-.09.15.15,0,0,1,.14,0l2.67,1.74a.38.38,0,0,1,.14.14.24.24,0,0,1,.06.15v2.77a.08.08,0,0,1-.06.09.2.2,0,0,1-.14,0L184,326a.35.35,0,0,1-.14-.13.29.29,0,0,1-.06-.16v-1.88l-.67-.43a1.7,1.7,0,0,1,.12.34,1.12,1.12,0,0,1,0,.36,1.48,1.48,0,0,1-.12.63.72.72,0,0,1-.34.35.83.83,0,0,1-.55.05,2.33,2.33,0,0,1-.76-.3,3.66,3.66,0,0,1-.79-.6,4,4,0,0,1-.58-.74,3.34,3.34,0,0,1-.36-.8,2.94,2.94,0,0,1-.12-.81,1.77,1.77,0,0,1,.13-.71.79.79,0,0,1,.36-.38.75.75,0,0,1,.5-.08,1.49,1.49,0,0,1,.6.21.29.29,0,0,1,.11.11.17.17,0,0,1,0,.12V322c0,.07,0,.11,0,.13Z" style="fill:#263238"></path></g><polygon points="133.26 450.71 137.32 448.37 117.01 347.52 112.95 349.87 133.26 450.71" style="fill:#37474f"></polygon><path d="M113,349.87l-12.19-7,20.31,100.85,12.19,7Z" style="fill:#263238"></path><polygon points="104.83 340.49 100.76 342.83 112.95 349.87 117.01 347.52 104.83 340.49" style="fill:#455a64"></polygon><polygon points="42.83 398.5 55.01 405.54 96.7 246.68 84.51 239.64 42.83 398.5" style="fill:#263238"></polygon><polygon points="55.01 405.54 59.08 403.19 100.76 244.33 96.7 246.68 55.01 405.54" style="fill:#37474f"></polygon><polygon points="88.58 237.3 100.76 244.33 96.7 246.68 84.51 239.64 88.58 237.3" style="fill:#455a64"></polygon><polygon points="42.83 398.5 46.03 386.28 129.98 434.75 133.26 450.71 42.83 398.5" style="fill:#263238"></polygon><polygon points="58.22 393.32 62.28 390.97 116.8 422.45 117.87 427.75 58.22 393.32" style="fill:#455a64"></polygon><path d="M85.77,249.43a6.28,6.28,0,0,0,2.62,5c1.45.83,2.63,0,2.63-2a6.29,6.29,0,0,0-2.63-5C86.94,246.61,85.77,247.5,85.77,249.43Z" style="fill:#455a64"></path><path d="M105.7,352.86a6.28,6.28,0,0,0,2.62,5c1.45.84,2.63-.05,2.63-2a6.29,6.29,0,0,0-2.63-5C106.87,350,105.7,350.93,105.7,352.86Z" style="fill:#455a64"></path></g></g><g id="freepik--Bottle--inject-15"><g id="freepik--Water--inject-15"><path d="M425.42,341.12a34.7,34.7,0,0,0-2.5-6.45c-.11-.24-.22-.47-.34-.71a13.24,13.24,0,0,1,.18-12.47l.22-.39a14.08,14.08,0,0,0,1.93-7.34,8.63,8.63,0,0,0-4.19-6.94,14,14,0,0,0-1.94-.95,3.33,3.33,0,0,1-2.11-3.08l0-3.8-12.17-.05,0,3.8a3.31,3.31,0,0,1-2.13,3.07,12.94,12.94,0,0,0-1.95.93,8.62,8.62,0,0,0-4.24,6.9,14.09,14.09,0,0,0,1.87,7.36l.21.37a13.3,13.3,0,0,1,.1,12.5l-.35.7a34.53,34.53,0,0,0-2.55,6.44,30.62,30.62,0,0,0-.59,6.54l-.07,17.71c0,2.3,1.5,4.6,4.52,6.36a21.38,21.38,0,0,0,8.79,2.56,26.93,26.93,0,0,0,4.4,0,21.31,21.31,0,0,0,8.75-2.5c3-1.74,4.56-4,4.57-6.32l.05-12.8c0-1.59.07-3.26.08-4.93A29.9,29.9,0,0,0,425.42,341.12Z" style="fill:#D6312E"></path><path d="M422.76,321.49l.22-.39a14,14,0,0,0,1.89-6.22,11.28,11.28,0,0,1-1.15,2.52,24,24,0,0,1-5.48,5.72c-2.09,1.7-4.4,3.64-4.66,6.31s1.57,4.95,3.65,6.52,4.52,2.67,6.39,4.48a16,16,0,0,1,2.12,2.65c-.08-.66-.18-1.32-.32-2a34.7,34.7,0,0,0-2.5-6.45c-.11-.24-.22-.47-.34-.71A13.24,13.24,0,0,1,422.76,321.49Z" style="opacity:0.15"></path><path d="M402.46,303.19v2c0,1.22.8,2.45,2.41,3.4a12.94,12.94,0,0,0,11.69,0,5.52,5.52,0,0,0,1.82-1.57,3.11,3.11,0,0,0,.61-1.79v-2.08a2.08,2.08,0,0,0-.07-.55,4.37,4.37,0,0,0-2.33-2.83l-.12-.07a13,13,0,0,0-11.57,0,4.41,4.41,0,0,0-2.37,2.81A2.25,2.25,0,0,0,402.46,303.19Z" style="fill:#37474f"></path><path d="M416.56,306.6c3.23-1.85,3.24-4.87,0-6.75a12.89,12.89,0,0,0-11.68-.05c-3.24,1.85-3.25,4.88,0,6.75A12.91,12.91,0,0,0,416.56,306.6Z" style="fill:#263238"></path><path d="M402.47,300.8V302a2.29,2.29,0,0,0,.06.58,4.44,4.44,0,0,0,2.35,2.82,11.5,11.5,0,0,0,5.16,1.4,12.18,12.18,0,0,0,6.52-1.36,5.61,5.61,0,0,0,1.82-1.56,3.18,3.18,0,0,0,.54-1.23,2.15,2.15,0,0,0,.07-.56v-1.27c0-1.23-.8-2.45-2.41-3.39a4.53,4.53,0,0,0-.44-.23,13,13,0,0,0-11.24.19C403.28,298.35,402.47,299.57,402.47,300.8Z" style="fill:#37474f"></path><path d="M402.47,300.76c0,2.62,3.68,4.76,8.25,4.78s8.27-2.09,8.28-4.72-3.68-4.76-8.25-4.78S402.48,298.14,402.47,300.76Z" style="fill:#455a64"></path><path d="M407.89,295.89l0,4.27a1.49,1.49,0,0,0,0,.21,1.55,1.55,0,0,0,.82,1,4,4,0,0,0,1.79.49,4.3,4.3,0,0,0,2.26-.47,1.92,1.92,0,0,0,.63-.55,1.05,1.05,0,0,0,.19-.42,1.23,1.23,0,0,0,0-.19l0-4.3a1.42,1.42,0,0,0-.84-1.17l-.15-.08a4.52,4.52,0,0,0-3.9.06A1.44,1.44,0,0,0,407.89,295.89Z" style="fill:#37474f"></path><path d="M407.89,295.87c0,.91,1.28,1.65,2.86,1.66s2.86-.73,2.87-1.64-1.28-1.65-2.86-1.65S407.89,295,407.89,295.87Z" style="fill:#455a64"></path><path d="M409.74,295.88c0,.32.45.59,1,.59s1-.26,1-.58-.45-.59-1-.59S409.74,295.56,409.74,295.88Z" style="fill:#263238"></path></g></g><g id="freepik--Character--inject-15"><g id="freepik--character--inject-15"><g id="freepik--Bottom--inject-15"><path d="M284.22,348.61c.92,16.4,2,28.63,1.62,37.2,0,.8,6.3,4.53,11.74,3.71s6.93-2.69,6.94-3.26c0-2,2.57-4.54,2.72-6.51a239.35,239.35,0,0,1,4.39-30.34Z" style="fill:#ffa8a7"></path><path d="M366.47,354.91l-24.75-2.6c2.33,12.41,4.8,25.28,6.6,34a48.62,48.62,0,0,0,2.07,7.69c1.07,5.61,14.47,6.56,17.33-2.3l-.42-7.62C367.11,377.05,366.72,365.39,366.47,354.91Z" style="fill:#ffa8a7"></path><path d="M255.86,414c-.36,0-.71,3.95,1.34,5.51,2.37,1.81,9.2,4.63,17.94,3.09s11.11-3.39,14.48-6.45,6.45-6.24,10.39-7.29c3.66-1,9.21-2.71,10.34-3.88s.71-6.15.71-6.15Z" style="fill:#263238"></path><path d="M307.52,377.36s.31,0,.6,1.19c.34,1.35.84,5.33,1.54,7.55A55.63,55.63,0,0,1,311,400.56c-.36,2.57-7.92,4.53-11.7,6.15s-6.6,3.78-10.43,7.2a27.34,27.34,0,0,1-16,6.63c-6.79.28-14.55-1.5-16.46-4.5-2.36-3.71-2.87-7.35,7-12.41,1.86-1,7.56-4.62,9.77-6.13a43.34,43.34,0,0,0,6.73-5.56,35,35,0,0,0,2.45-2.72,8.34,8.34,0,0,0,1.25-2.86c.5-1.84.15-3.8.36-5.69a1,1,0,0,1,.16-.5,1,1,0,0,1,.43-.29,12,12,0,0,1,4.92-.48,20,20,0,0,1,5,.85,4.12,4.12,0,0,1,2.35,1.32,3.5,3.5,0,0,1,.55,1.81,13.54,13.54,0,0,0,.15,1.91,1.15,1.15,0,0,0,.29.62c.36.32.89,0,1.17-.25a25.09,25.09,0,0,0,2.55-3.33c.45-.6,2.56-1.07,3.14-1.55s2.4-.6,2.56-1.26A8.21,8.21,0,0,0,307.52,377.36Z" style="fill:#37474f"></path><path d="M288.85,413.91a49.59,49.59,0,0,1,4.49-3.73h0s-10.51,4.67-15.46,1.71c-3.19-1.91-1.85-4.49-1.82-5.29s-7.74-3.87-10.75-4.07h0c-.81.49-1.49.89-1.92,1.11-9.83,5.06-9.32,8.7-7,12.41,1.91,3,7.57,5.13,16.35,4.71A28.15,28.15,0,0,0,288.85,413.91Z" style="fill:#455a64"></path><path d="M276.77,404.21c-6.13,2.76-3.4,3.77-1.64,3.93s10.34-5.25,16.51-10.54c6.43-5.52,12-11.29,14.38-13.31.89-.76,1.85-1.68,2.69-2.54-.23-1.34-.43-2.57-.59-3.2a3.51,3.51,0,0,0-.67-1.53l-.21,2.5c-.46.5-1.61.62-2.67,1a6,6,0,0,0-3.2,1.89,40.11,40.11,0,0,1-2.38,3.27C293.88,392.71,282.9,401.46,276.77,404.21Z" style="fill:#263238"></path><path d="M275.53,407.22a.67.67,0,0,0,.39-.16.59.59,0,0,0,0-.85,15.12,15.12,0,0,0-11.69-3.88.62.62,0,0,0-.52.7.61.61,0,0,0,.71.5c4.28-.66,9.09,1.88,10.58,3.49A.62.62,0,0,0,275.53,407.22Z" style="fill:#f0f0f0"></path><path d="M280.84,403.94a.63.63,0,0,0,.39-.15.61.61,0,0,0,.07-.86,15.14,15.14,0,0,0-11.6-4.13.6.6,0,0,0-.53.68.61.61,0,0,0,.7.52c4.29-.56,9,2.08,10.49,3.73A.63.63,0,0,0,280.84,403.94Z" style="fill:#f0f0f0"></path><path d="M285.72,400.26a.62.62,0,0,0,.38-.16.6.6,0,0,0,0-.86,15.09,15.09,0,0,0-11.69-3.86.6.6,0,1,0,.19,1.19c4.28-.66,9.09,1.88,10.58,3.49A.62.62,0,0,0,285.72,400.26Z" style="fill:#f0f0f0"></path><path d="M290,396.94a.62.62,0,0,0,.39-.14.6.6,0,0,0,.08-.86A15.08,15.08,0,0,0,279,391.59a.61.61,0,0,0-.55.67.63.63,0,0,0,.69.54c4.3-.48,9,2.25,10.42,3.92A.64.64,0,0,0,290,396.94Z" style="fill:#f0f0f0"></path><path d="M294.63,393.05a.64.64,0,0,0,.39-.14.6.6,0,0,0,.09-.85c-2.47-3-8-4.9-12.59-4.35a.59.59,0,0,0-.54.67.61.61,0,0,0,.68.53c4.15-.49,9.29,1.27,11.49,3.91A.62.62,0,0,0,294.63,393.05Z" style="fill:#f0f0f0"></path><path d="M349.92,424.38c.29,5.77,1.16,9.6,3.19,13s5.87,4.48,9.79,3.52,9-3.58,10.1-8.54,1-8.38.1-13.74Z" style="fill:#263238"></path><path d="M367.3,384.07c1.36.45,1.65,8.34,2.52,16.1.94,8.32,2.39,10.84,3.23,17.66,1,7.8.39,10.4-2.37,15.09s-12.45,9.24-17.16,2.46c-3.84-5.52-3.83-10.74-3.42-18.52a161.84,161.84,0,0,0,.07-18.52c-.27-5.84-3.25-11.4-1.85-12-.25.12.84,4,.93,4.38a7.27,7.27,0,0,0,.83,2.16c.75,1.1,1.13-.67,1.14-1.35,0-1.15-.37-2.07.53-3a6.73,6.73,0,0,1,2.42-1.36,15.11,15.11,0,0,1,2.94-.82,30.79,30.79,0,0,1,6.22-.3,3,3,0,0,1,2.39,1,1.66,1.66,0,0,1,.22.61c.16.76.06,1.55.21,2.31.05.22.13.77.33.9s.54.08.55-.07S367.44,385.42,367.3,384.07Z" style="fill:#37474f"></path><path d="M372.74,415.17c.15,1.12.87,8.14-1.16,9.47-2.2,1.43-3.37-4.42-3.37-4.42s-5.13-1.61-12.63,1.61c.37,1.21-.81,5.18-2.86,4.32s-2.64-8.51-2.65-8.62c-.37,7.46-.28,12.49,3.45,17.85,4.71,6.78,14.4,2.23,17.16-2.46s3.33-7.29,2.37-15.09C373,417.05,372.87,415.87,372.74,415.17Z" style="fill:#455a64"></path><path d="M367.62,420.71c0,2.82,2.54,1.87,2.95-2.09.62-5.93-.82-11.61-.75-18.45-.87-7.76-.91-16-2.52-16.1.05,1.35-.27,6.69-.27,6.69.46,5.8,1.94,12.6,1.66,18.57C368.45,414.6,367.61,417.9,367.62,420.71Z" style="fill:#263238"></path><path d="M356.45,421.76c-.51-2.77-1.4-3.56-1.93-8.81s-3.34-14.66-4.4-20.34c-.29-1.76-1.79-6.25-1.8-6.31-1,.48-.07,3.74.69,7.26s1.29,5.67,1.77,9c1.34,6.71,1.49,13.83,2.37,17.71S357,424.53,356.45,421.76Z" style="fill:#263238"></path><path d="M355.81,421.89a.83.83,0,0,0,.21-.06,19,19,0,0,1,12.42-1.2.62.62,0,0,0,.74-.42.6.6,0,0,0-.42-.74,19.94,19.94,0,0,0-13.28,1.29.6.6,0,0,0,.33,1.13Z" style="fill:#f0f0f0"></path><path d="M354.22,416.29a.76.76,0,0,0,.2-.06c.06,0,7.25-3.27,14.49-1.54a.6.6,0,1,0,.28-1.16c-7.66-1.83-15,1.49-15.28,1.62a.6.6,0,0,0-.29.8A.62.62,0,0,0,354.22,416.29Z" style="fill:#f0f0f0"></path><path d="M369.77,410.13a.59.59,0,0,0,.51-.4.6.6,0,0,0-.37-.76c-7.2-2.5-16.72.81-17,1a.6.6,0,0,0,.55,1.06c.07,0,9.38-3.24,16.09-.9A.72.72,0,0,0,369.77,410.13Z" style="fill:#f0f0f0"></path><path d="M368.64,405.08a.61.61,0,0,0,.5-.39.59.59,0,0,0-.35-.77c-7.93-2.9-16.12,1.39-16.4,1.56a.59.59,0,0,0-.21.82.6.6,0,0,0,.82.21c.06,0,8-4.17,15.38-1.47A.75.75,0,0,0,368.64,405.08Z" style="fill:#f0f0f0"></path><path d="M368.19,398.92a.58.58,0,0,0,.5-.38.59.59,0,0,0-.34-.77c-7.43-2.84-16.2,1.55-16.51,1.73a.6.6,0,0,0,.59,1c.07,0,8.6-4.29,15.49-1.65A.63.63,0,0,0,368.19,398.92Z" style="fill:#ebebeb"></path><path d="M318.62,261.66l-2.18,31.66a116.64,116.64,0,0,1,.89,21.93c-.76,10.74-6.24,41.76-8.82,53.13a23.83,23.83,0,0,1-23.36.07s-4-64.24-4.68-79.35-2.92-73.53,3.9-103l69.29,2.21s7.33,10.25,8.23,29.5-1.33,75.49-1.33,75.49c7.47,23,6.42,38,6.93,80.79a22.2,22.2,0,0,1-21.81,2.08S335,333.94,330.9,316.83c-2-8.17-8.37-36.34-12.28-55.17" style="fill:#37474f"></path><path d="M367.32,355.42c-1.63-.4-2.78-2.17-3.15-4.9-.12-.84-.25-1.91-.41-3.17-1.06-8.26-3-23.64-6.46-36.46-4-14.93-5-24-4.38-38.78.26-5.88.19-13.62.11-21.1-.11-11.25-.22-22.88.88-26.9.93-3.41,3.81-5.56,6.86-7.83l1-.72c0-.41-.06-.82-.1-1.23l-1.49,1.13c-3.06,2.27-6.22,4.62-7.25,8.38-1.13,4.16-1,15.34-.9,27.18.07,7.47.15,15.19-.11,21-.66,14.91.37,24,4.41,39.09,3.42,12.75,5.37,28.09,6.43,36.32.16,1.26.29,2.34.41,3.18.44,3.26,1.93,5.37,4.09,5.8h.09Z" style="fill:#263238"></path><path d="M308.46,353.59c-2.61-2-1.43-9.08-.3-15.9.2-1.15.39-2.31.56-3.45,1.77-11.43,2.17-26.17,1-35.83-.77-6.27-3.74-23.68-1.23-40.19,1.26-8.36,2.57-17,3.53-24.78l-1-.12c-1,7.76-2.26,16.4-3.53,24.75-2.51,16.58.44,34.06,1.23,40.46,1.19,9.59.79,24.21-1,35.56-.18,1.13-.37,2.29-.56,3.43-1.24,7.45-2.41,14.48.68,16.88a4.13,4.13,0,0,0,2.52.82,8.19,8.19,0,0,0,.83-.05c.06-.35.13-.71.19-1.06A3.8,3.8,0,0,1,308.46,353.59Z" style="fill:#263238"></path><path d="M312.37,225.07l6.25,36.59-2.18,31.66-2.14-33-6.16-32s-12.74-4.06-15.81-17.18C298.65,221.8,312.37,225.07,312.37,225.07Z" style="fill:#263238"></path></g><g id="freepik--Top--inject-15"><path d="M299.61,111.47c-7.68-.18-14.34,2.32-17.52,7.75s-5.57,14.14-6.85,16.82-3,4.76-5.42,10.17c-2,4.54-4.63,12.09-4.63,12.09l-26.83-6.92-4.31,10.48s8.72,5.84,14.66,9.37a112.55,112.55,0,0,0,17.39,8.65c4.2,1.56,8,2.57,11-.91s18.15-32.35,18.15-32.35Z" style="fill:#ffa8a7"></path><g id="freepik--dumbbell--inject-15"><polygon points="219.5 150.13 220.93 149.71 214.63 149.15 210.94 149.36 219.5 150.13" style="fill:#37474f"></polygon><polygon points="214.63 140.75 214.63 149.15 210.94 149.36 210.94 138.97 214.63 140.75" style="fill:#263238"></polygon><polygon points="220.93 132.92 218.11 130.05 210.94 138.97 214.63 140.75 220.93 132.92" style="fill:#37474f"></polygon><polygon points="227.23 133.48 226.67 130.82 218.11 130.05 220.93 132.92 227.23 133.48" style="fill:#455a64"></polygon><polygon points="227.23 141.88 227.23 133.48 220.93 132.92 214.63 140.75 214.63 149.15 220.93 149.71 227.23 141.88" style="fill:#455a64"></polygon><polygon points="210.94 149.36 205.97 146.49 205.97 136.1 210.94 138.97 210.94 149.36" style="fill:#263238"></polygon><polygon points="218.11 130.05 210.94 138.97 205.97 136.1 213.14 127.18 218.11 130.05" style="fill:#37474f"></polygon><polygon points="226.67 130.82 221.7 127.95 213.14 127.18 218.11 130.05 226.67 130.82" style="fill:#455a64"></polygon><path d="M211.05,144.17c0-1.71.06-3.43.06-5.14l3.56-4.4,3.51-4.41c2.83.22,5.66.43,8.49.6-2.84-.34-5.7-.64-8.55-.93H218L218,130l-3.61,4.44-3.57,4.47,0,0V139c0,1.73,0,3.46.06,5.2s.08,3.46.12,5.19C211,147.63,211,145.9,211.05,144.17Z" style="opacity:0.2"></path><polygon points="213.14 127.18 211.05 127.59 205.08 135.02 205.97 136.1 213.14 127.18" style="fill:#37474f"></polygon><polygon points="205.08 143.67 205.97 146.49 205.97 136.1 205.08 135.02 205.08 143.67" style="fill:#263238"></polygon><g style="opacity:0.2"><path d="M206,146.49c-.07-1.73-.13-3.46-.15-5.19s0-3.47,0-5.2V136l0-.05c1.19-1.48,2.4-3,3.61-4.44s2.45-2.92,3.71-4.36c-1.14,1.54-2.29,3.06-3.47,4.56s-2.36,3-3.55,4.48l0-.12c0,1.73,0,3.46,0,5.2S206,144.76,206,146.49Z"></path></g><polygon points="227.23 133.48 221.1 133.33 215.07 140.91 214.99 148.91 220.93 149.71 214.63 149.15 214.63 140.75 220.93 132.92 227.23 133.48" style="fill:#fff;opacity:0.1"></polygon><path d="M207.77,141.81h-.1l-.1,0a.24.24,0,0,0-.08.09.37.37,0,0,0,0,.17.75.75,0,0,0,0,.2,1,1,0,0,0,.09.21.9.9,0,0,0,.15.19.64.64,0,0,0,.2.16.32.32,0,0,0,.3.05q.12-.06.12-.27a.39.39,0,0,0,0-.14l0-.13-.05-.12a.31.31,0,0,1,0-.08v-.73a.07.07,0,0,1,0-.07.13.13,0,0,1,.11,0l1.92,1.25a.52.52,0,0,1,.11.1.3.3,0,0,1,0,.11v2a.07.07,0,0,1,0,.07.17.17,0,0,1-.11,0l-.57-.33a.28.28,0,0,1-.1-.09.19.19,0,0,1,0-.12V143l-.49-.31a1.06,1.06,0,0,1,.09.25.75.75,0,0,1,0,.26,1,1,0,0,1-.09.45.49.49,0,0,1-.25.26.7.7,0,0,1-.39,0,1.79,1.79,0,0,1-.55-.22,2.54,2.54,0,0,1-.57-.44,2.33,2.33,0,0,1-.42-.53,2.72,2.72,0,0,1-.26-.58,2.38,2.38,0,0,1-.08-.58,1.28,1.28,0,0,1,.09-.52.55.55,0,0,1,.25-.27.65.65,0,0,1,.37-.06,1.3,1.3,0,0,1,.43.15.3.3,0,0,1,.08.08.16.16,0,0,1,0,.09v.6q0,.08,0,.09Z" style="fill:#455a64"></path><path d="M239.93,156.27a1.73,1.73,0,0,0,1.73-.17,5.41,5.41,0,0,0,2.44-4.24,1.71,1.71,0,0,0-.72-1.58l-20.75-12a1.73,1.73,0,0,0-1.73.17,5.44,5.44,0,0,0-2.44,4.24,1.7,1.7,0,0,0,.72,1.58Z" style="fill:#f0f0f0"></path><path d="M244.1,151.86a1.49,1.49,0,0,0-2.44-1.41,5.42,5.42,0,0,0-2.45,4.24,1.49,1.49,0,0,0,2.45,1.41A5.41,5.41,0,0,0,244.1,151.86Z" style="fill:#fafafa"></path><path d="M235.59,153.76l-.83-.48a1.69,1.69,0,0,1-.71-1.58,5.38,5.38,0,0,1,2.44-4.23,1.73,1.73,0,0,1,1.73-.17l.82.48a1.71,1.71,0,0,0-1.73.17,5.38,5.38,0,0,0-2.44,4.23A1.71,1.71,0,0,0,235.59,153.76Z" style="fill:#e0e0e0"></path><path d="M224.22,147.2l-.82-.48a1.69,1.69,0,0,1-.71-1.58,5.38,5.38,0,0,1,2.44-4.23,1.71,1.71,0,0,1,1.72-.17l.83.48a1.71,1.71,0,0,0-1.73.17,5.38,5.38,0,0,0-2.44,4.23A1.73,1.73,0,0,0,224.22,147.2Z" style="fill:#e0e0e0"></path><path d="M232,151.67l-5-2.86a1.69,1.69,0,0,1-.71-1.58,5.35,5.35,0,0,1,2.44-4.23,1.71,1.71,0,0,1,1.73-.17l5,2.86a1.73,1.73,0,0,0-1.73.17,5.41,5.41,0,0,0-2.44,4.23A1.73,1.73,0,0,0,232,151.67Z" style="fill:#e0e0e0"></path><polygon points="251.22 168.43 252.65 168.02 246.35 167.46 242.66 167.67 251.22 168.43" style="fill:#37474f"></polygon><polygon points="246.35 159.06 246.35 167.46 242.66 167.67 242.66 157.28 246.35 159.06" style="fill:#263238"></polygon><polygon points="252.65 151.23 249.83 148.36 242.66 157.28 246.35 159.06 252.65 151.23" style="fill:#37474f"></polygon><polygon points="258.95 151.79 258.39 149.12 249.83 148.36 252.65 151.23 258.95 151.79" style="fill:#455a64"></polygon><polygon points="258.95 160.19 258.95 151.79 252.65 151.23 246.35 159.06 246.35 167.46 252.65 168.02 258.95 160.19" style="fill:#455a64"></polygon><polygon points="242.66 167.67 237.69 164.8 237.69 154.41 242.66 157.28 242.66 167.67" style="fill:#263238"></polygon><polygon points="249.83 148.36 242.66 157.28 237.69 154.41 244.86 145.49 249.83 148.36" style="fill:#37474f"></polygon><polygon points="258.39 149.12 253.42 146.25 244.86 145.49 249.83 148.36 258.39 149.12" style="fill:#455a64"></polygon><path d="M242.77,162.47c0-1.71.06-3.42.06-5.13l3.56-4.4,3.51-4.41q4.24.33,8.49.59c-2.84-.33-5.7-.64-8.55-.92h-.08l-.06.07-3.61,4.44-3.57,4.47,0,.05v.06c0,1.73,0,3.46.06,5.19s.08,3.47.12,5.2C242.69,165.94,242.76,164.2,242.77,162.47Z" style="opacity:0.2"></path><polygon points="244.86 145.49 242.77 145.9 236.8 153.32 237.69 154.41 244.86 145.49" style="fill:#37474f"></polygon><polygon points="236.8 161.97 237.69 164.8 237.69 154.41 236.8 153.32 236.8 161.97" style="fill:#263238"></polygon><g style="opacity:0.2"><path d="M237.69,164.8c-.07-1.73-.13-3.47-.15-5.2s0-3.46,0-5.19v-.07l0-.05c1.19-1.49,2.4-3,3.61-4.44s2.45-2.92,3.71-4.36c-1.14,1.53-2.29,3-3.47,4.56s-2.36,3-3.55,4.48l0-.12c0,1.73,0,3.46,0,5.19S237.75,163.07,237.69,164.8Z"></path></g><polygon points="258.95 151.79 252.82 151.64 246.79 159.22 246.71 167.22 252.65 168.02 246.35 167.46 246.35 159.06 252.65 151.23 258.95 151.79" style="fill:#fff;opacity:0.1"></polygon><path d="M239.49,160.11l-.1,0a.21.21,0,0,0-.1,0,.15.15,0,0,0-.08.09.35.35,0,0,0,0,.16.76.76,0,0,0,0,.21,1,1,0,0,0,.09.21,1.33,1.33,0,0,0,.14.19,1.16,1.16,0,0,0,.21.16.32.32,0,0,0,.3.05q.12-.06.12-.27a.35.35,0,0,0,0-.14c0-.05,0-.09,0-.13l-.05-.12a.45.45,0,0,1,0-.08v-.73s0-.06,0-.07a.13.13,0,0,1,.11,0L242,161a.35.35,0,0,1,.11.1.25.25,0,0,1,0,.11v2a.07.07,0,0,1,0,.06.15.15,0,0,1-.11,0l-.57-.33a.24.24,0,0,1-.1-.1.21.21,0,0,1-.05-.11v-1.36l-.48-.31a1.06,1.06,0,0,1,.09.25.75.75,0,0,1,0,.26,1,1,0,0,1-.09.45.53.53,0,0,1-.25.26.65.65,0,0,1-.4,0,1.53,1.53,0,0,1-.54-.22,2.25,2.25,0,0,1-.57-.43,2.57,2.57,0,0,1-.42-.53,2.72,2.72,0,0,1-.26-.58,2,2,0,0,1-.08-.59,1.23,1.23,0,0,1,.09-.51.55.55,0,0,1,.25-.27.57.57,0,0,1,.37-.06,1.3,1.3,0,0,1,.43.15.2.2,0,0,1,.08.08.12.12,0,0,1,0,.09V160s0,.09,0,.1Z" style="fill:#455a64"></path></g><path d="M234.77,148.55l0,0a3.45,3.45,0,0,1,4.31-.69l.32.18s.36-2.35-.79-3.27a5.81,5.81,0,0,0-2.45-1.13,3.71,3.71,0,0,0-1.42-2.48,6,6,0,0,0-3.05-.54,4.1,4.1,0,0,0-1.13-1.61c-.92-.87-2-1.39-6.3-.48s-6.86,2.28-6.93,3.83.92,9.41,1.77,11.44,3.75,3.07,6.3,4.54,6.36,2.49,10,4.48l1.37-5.6v-2.72l-1.22-.7a3.39,3.39,0,0,1-.84-5.18Z" style="fill:#ffa8a7"></path><g id="freepik--Chest--inject-15"><path d="M306.76,110.73s17.21-2.08,27,.93l15.7,4.82c2.31,2.94,4.21,12.65,3.17,19-.89,5.4-5.24,28-6.22,34.9,5,9.39,11.47,26.21,11.47,26.21-14,13-66.77,14.14-75.79-1.25,0,0,1.63-10.14,2.86-21.64.19-7.15-.42-12.44-.58-16.38,0,0-5-4.57-5.28-14.17-.16-5.92.84-9.33,8.64-18.71s11.86-12.93,11.86-12.93Z" style="fill:#D6312E"></path><path d="M302.53,157.05c7,8,23.72,4.86,28.08-4C328.86,166.68,305.79,167.52,302.53,157.05Z" style="opacity:0.2"></path><path d="M346.79,202.39c-3.05-8.07-8.8-24-10.25-33-2-12.42,7.89-33.95,7.89-33.95l8.25-.22,0,.22c-.89,5.4-5.24,28-6.22,34.9,5,9.39,11.47,26.21,11.47,26.21C355.34,198.91,351.47,200.87,346.79,202.39Z" style="fill:#fff;opacity:0.30000000000000004"></path></g><g id="freepik--Head--inject-15"><path d="M317.72,97.78a57,57,0,0,1-11.2-8.18c-1.91-1.83-2.3-4.43-2.76-6.91a18.28,18.28,0,0,0-2.88-7.28A10.24,10.24,0,0,0,297.62,72c-1-.56-2.26-.76-3.24-1.41A4.17,4.17,0,0,1,293,65.41a5.64,5.64,0,0,0-1.6,2.28,2.15,2.15,0,0,0,.82,2.47,4.28,4.28,0,0,1-3.48-4,5.86,5.86,0,0,1,2.63-4.9c1.21-.84,3-1.5,3.31-3.14a5.87,5.87,0,0,0-.24-2.11,8.9,8.9,0,0,1,8.44-10.69,46.28,46.28,0,0,0,7.15-.41c2.31-.43,4.58-.86,6.92-1.21a23.15,23.15,0,0,1,7-.06c7.19.93,15,6.64,16.41,14a7.34,7.34,0,0,1,5.72,3.3,17.72,17.72,0,0,1,2.54,10.43c-.83,9.4-3.91,14.7-10.07,20.57-3.08,2.94-6.37,6.13-8.07,10.07-.56,1.27,0,2-1.74,1.8s-3.55-1.72-5-2.55Z" style="fill:#263238"></path><path d="M338.43,91.53a9.55,9.55,0,0,1,8.41,11,9.3,9.3,0,0,0-3.09-6.18,12.42,12.42,0,0,0-6.32-3c1.61.72,2.45,2.5,2.85,4.22a14.47,14.47,0,0,1-1.31,9.92,11.72,11.72,0,0,0,.27-5.34A14.66,14.66,0,0,0,338.06,97c-.39-.76-.91-1.45-1.24-2.25a2.84,2.84,0,0,1,0-2.48" style="fill:#263238"></path><path d="M347.79,77a7,7,0,0,0,3.89-1.41A3.64,3.64,0,0,0,353,71.86a5,5,0,0,0,5.92-1.62A7.67,7.67,0,0,0,360,63.91a8.24,8.24,0,0,1,.66,7.28,17.74,17.74,0,0,0-2.49-20c-3-3.27-8.12-5.28-12-3a10.21,10.21,0,0,0-13.56.28c-2.08,2.06-1.47,3.34-1.88,6.25a23.17,23.17,0,0,0,.67,8.72,19.87,19.87,0,0,0,3.6,7.91C338.65,75.66,342.15,77.54,347.79,77Z" style="fill:#263238"></path><path d="M332.21,107c-.23-5-.26-12.56-.26-12.56.8,1.28,5.51,3.36,9.25-1,4.3-5.05,4-9,1.59-11.79-2.8-3.22-8.21-2.93-10.84,1.56-3.64.49-4.75-5.1-1.53-10-.13-4.33-6.45-4.72-5.59-16-9,3.69-20.58-4-26.16,5.51-1.42,3.12-3.26,8.06-3.63,17.11-.51,12.3,1.86,18.17,5.69,20.33,2.28,1.29,4.45,2.16,9,2.22,0,0,.08,3.16.14,5.45.05,1.67-.45,2.64-2.6,2.92-2.22,2.54-7.58,7.11,4.28,8.61,15.29,1.93,23.58-4.93,25.19-6.71C332.72,111.3,332.35,110.15,332.21,107Z" style="fill:#ffa8a7"></path><path d="M326.39,82.88c-.63,2.44.36,5.38,2.64,6.47a9.63,9.63,0,0,1-.75-4.46A5.21,5.21,0,0,1,330.43,81c.5-.33,1.06-.55,1.56-.89a2.14,2.14,0,0,0,1-1.4c.36-2.77-2.84-.9-3.7-.2A8.52,8.52,0,0,0,326.39,82.88Z" style="fill:#263238"></path><path d="M315.53,89,309,90.4a3.29,3.29,0,0,0,3.92,2.68A3.5,3.5,0,0,0,315.53,89Z" style="fill:#b16668"></path><path d="M315,90.41A3.7,3.7,0,0,0,311,92.93a3.24,3.24,0,0,0,1.86.15,3.45,3.45,0,0,0,2.58-2.56A3.88,3.88,0,0,0,315,90.41Z" style="fill:#f28f8f"></path><path d="M298.78,68.1l5.15-.06a2.47,2.47,0,0,0-2.51-2.57A2.7,2.7,0,0,0,298.78,68.1Z" style="fill:#263238"></path><path d="M322.94,70.72l-5-1.49a2.51,2.51,0,0,1,3.16-1.81A2.75,2.75,0,0,1,322.94,70.72Z" style="fill:#263238"></path><path d="M303.93,75.08a2.21,2.21,0,0,1-2.19,2.14,2.07,2.07,0,0,1-2.11-2.11A2.21,2.21,0,0,1,301.82,73,2.06,2.06,0,0,1,303.93,75.08Z" style="fill:#263238"></path><path d="M319.41,76.93a2.22,2.22,0,0,1-2.2,2.15A2.07,2.07,0,0,1,315.1,77a2.21,2.21,0,0,1,2.19-2.15A2.08,2.08,0,0,1,319.41,76.93Z" style="fill:#263238"></path><polygon points="301.2 81.81 308 85.54 311.21 71.69 301.2 81.81" style="fill:#f28f8f"></polygon><path d="M309.75,102.3c8.21,0,16.25-2,18.43-5.51a6.87,6.87,0,0,1-3.93,4.88c-4.89,2.28-14.45,2.65-14.45,2.65Z" style="fill:#f28f8f"></path></g><g id="freepik--dumbbell--inject-15"><polygon points="388.96 231.82 387.53 231.4 393.83 230.84 397.52 231.05 388.96 231.82" style="fill:#37474f"></polygon><polygon points="393.83 222.44 393.83 230.84 397.52 231.05 397.52 220.66 393.83 222.44" style="fill:#263238"></polygon><polygon points="387.53 214.61 390.35 211.74 397.52 220.66 393.83 222.44 387.53 214.61" style="fill:#37474f"></polygon><polygon points="381.23 215.17 381.79 212.51 390.35 211.74 387.53 214.61 381.23 215.17" style="fill:#455a64"></polygon><polygon points="381.23 223.57 381.23 215.17 387.53 214.61 393.83 222.44 393.83 230.84 387.53 231.4 381.23 223.57" style="fill:#455a64"></polygon><polygon points="397.52 231.05 402.5 228.18 402.5 217.79 397.52 220.66 397.52 231.05" style="fill:#263238"></polygon><polygon points="390.35 211.74 397.52 220.66 402.5 217.79 395.32 208.87 390.35 211.74" style="fill:#37474f"></polygon><polygon points="381.79 212.51 386.76 209.64 395.32 208.87 390.35 211.74 381.79 212.51" style="fill:#455a64"></polygon><path d="M397.53,231.05c0-1.73.1-3.46.11-5.19s.06-3.46.06-5.2v-.06l0,0-3.57-4.47-3.61-4.44-.05-.07h-.09c-2.85.29-5.7.59-8.55.93,2.83-.17,5.66-.38,8.49-.6l3.51,4.41,3.56,4.41c0,1.71,0,3.42.06,5.13S397.49,229.32,397.53,231.05Z" style="opacity:0.2"></path><polygon points="395.32 208.87 397.41 209.28 403.38 216.71 402.5 217.79 395.32 208.87" style="fill:#37474f"></polygon><polygon points="403.38 225.36 402.5 228.18 402.5 217.79 403.38 216.71 403.38 225.36" style="fill:#263238"></polygon><g style="opacity:0.2"><path d="M402.5,228.18c.06-1.73.12-3.46.14-5.19s0-3.46.05-5.2v-.06l0-.06q-1.8-2.22-3.62-4.43c-1.22-1.47-2.45-2.93-3.71-4.37q1.71,2.31,3.47,4.56c1.18,1.5,2.36,3,3.56,4.48l-.05-.12c0,1.74,0,3.47.05,5.2S402.43,226.45,402.5,228.18Z"></path></g><polygon points="381.23 215.17 387.36 215.02 393.39 222.61 393.47 230.6 387.53 231.4 393.83 230.84 393.83 222.44 387.53 214.61 381.23 215.17" style="fill:#fff;opacity:0.1"></polygon><path d="M368.53,238a1.69,1.69,0,0,1-1.72-.17,5.42,5.42,0,0,1-2.45-4.23,1.72,1.72,0,0,1,.72-1.59l20.75-12a1.73,1.73,0,0,1,1.73.17A5.41,5.41,0,0,1,390,224.4a1.7,1.7,0,0,1-.72,1.58Z" style="fill:#f0f0f0"></path><path d="M364.36,233.56a1.49,1.49,0,0,1,2.45-1.41,5.38,5.38,0,0,1,2.44,4.23,1.49,1.49,0,0,1-2.44,1.41A5.42,5.42,0,0,1,364.36,233.56Z" style="fill:#fafafa"></path><path d="M372.88,235.45l.82-.48a1.68,1.68,0,0,0,.71-1.57,5.38,5.38,0,0,0-2.44-4.24,1.71,1.71,0,0,0-1.72-.17l-.83.48a1.73,1.73,0,0,1,1.73.17,5.39,5.39,0,0,1,2.44,4.23A1.73,1.73,0,0,1,372.88,235.45Z" style="fill:#e0e0e0"></path><path d="M384.24,228.89l.82-.48a1.71,1.71,0,0,0,.72-1.57,5.42,5.42,0,0,0-2.45-4.24,1.71,1.71,0,0,0-1.72-.17l-.83.48a1.73,1.73,0,0,1,1.73.17,5.36,5.36,0,0,1,2.44,4.23A1.69,1.69,0,0,1,384.24,228.89Z" style="fill:#e0e0e0"></path><path d="M376.49,233.37l5-2.87a1.69,1.69,0,0,0,.71-1.58,5.36,5.36,0,0,0-2.44-4.23,1.71,1.71,0,0,0-1.72-.17l-5,2.86a1.73,1.73,0,0,1,1.73.17,5.41,5.41,0,0,1,2.44,4.24A1.73,1.73,0,0,1,376.49,233.37Z" style="fill:#e0e0e0"></path><polygon points="357.24 250.12 355.81 249.71 362.11 249.15 365.81 249.36 357.24 250.12" style="fill:#37474f"></polygon><polygon points="362.11 240.75 362.11 249.15 365.81 249.36 365.8 238.97 362.11 240.75" style="fill:#263238"></polygon><polygon points="355.81 232.92 358.63 230.05 365.8 238.97 362.11 240.75 355.81 232.92" style="fill:#37474f"></polygon><polygon points="349.51 233.48 350.07 230.82 358.63 230.05 355.81 232.92 349.51 233.48" style="fill:#455a64"></polygon><polygon points="349.51 241.88 349.51 233.48 355.81 232.92 362.11 240.75 362.11 249.15 355.81 249.71 349.51 241.88" style="fill:#455a64"></polygon><polygon points="349.51 233.48 350.05 241.6 355.81 249.71 349.51 241.88 349.51 233.48" style="fill:#fff;opacity:0.1"></polygon><polygon points="365.81 249.36 370.78 246.49 370.77 236.1 365.8 238.97 365.81 249.36" style="fill:#263238"></polygon><polygon points="358.63 230.05 365.8 238.97 370.77 236.1 363.61 227.18 358.63 230.05" style="fill:#37474f"></polygon><polygon points="350.07 230.82 355.04 227.95 363.61 227.18 358.63 230.05 350.07 230.82" style="fill:#455a64"></polygon><path d="M365.8,249.36c0-1.73.11-3.46.12-5.19s.06-3.47.06-5.2v-.06l0,0-3.57-4.47L358.76,230l-.05-.07h-.09c-2.85.29-5.71.59-8.55.93,2.83-.17,5.66-.38,8.49-.6l3.51,4.41,3.56,4.4c0,1.71,0,3.42.06,5.14S365.77,247.63,365.8,249.36Z" style="opacity:0.2"></path><polygon points="363.61 227.18 365.69 227.59 371.66 235.02 370.77 236.1 363.61 227.18" style="fill:#37474f"></polygon><polygon points="371.66 243.66 370.78 246.49 370.77 236.1 371.66 235.02 371.66 243.66" style="fill:#263238"></polygon><g style="opacity:0.2"><path d="M370.78,246.49c.06-1.73.12-3.46.14-5.19s0-3.47.05-5.2V236l0-.05c-1.2-1.49-2.41-3-3.62-4.44s-2.45-2.92-3.71-4.36c1.14,1.54,2.3,3,3.47,4.56s2.36,3,3.55,4.48l0-.12c0,1.73,0,3.46.05,5.2S370.71,244.76,370.78,246.49Z"></path></g><polygon points="349.51 233.48 355.64 233.33 361.67 240.91 361.75 248.91 355.81 249.71 362.11 249.15 362.11 240.75 355.81 232.92 349.51 233.48" style="fill:#fff;opacity:0.1"></polygon></g><g id="freepik--Arm--inject-15"><path d="M383.28,216.71c-.3-5.05-1.1-22.37-1.51-27.74-.53-7.06-.5-11-1.11-15.4-.67-4.93-4.8-17.3-8.46-29.16-4.73-15.31-6.2-18.77-9.81-22.27-4.11-4-8.44-5-15.68-6.52-6.61,6.09-2.76,25.16.56,31.17s11.25,25.51,11.25,25.51l5.62,25.17c1.47,6.52,3.08,13.07,3.08,13.07.58,3.16,2.26,7.29,1.3,10.56s-2.35,7.08-2.35,7.08l1.87,2.33,2.43-1.65a6.42,6.42,0,0,1,2.82,2.19c1,1.55.35,3.95-.41,4.4l-1.22.7v7.51a19.7,19.7,0,0,0,3.91,1.6c1.88.47,2-.22,3.53-1.1s2.38,0,3.7-.79,1.64-2.25,2.5-2.62a4,4,0,0,0,2.44-2.63c.63-1.74.78-6.13,1-8.49S383.51,220.63,383.28,216.71Z" style="fill:#ffa8a7"></path></g></g></g><path id="freepik--Lines--inject-15" d="M200.18,159.84c-.72-1-1.46-1.91-2.14-2.9a44.87,44.87,0,0,1-3.33-5.68,46.38,46.38,0,0,1-2.64-6.7,61.92,61.92,0,0,1-1.84-6.79s-.06-.06-.06,0a31.61,31.61,0,0,0,.83,6.85,39.29,39.29,0,0,0,2.4,6.64,40.67,40.67,0,0,0,3.66,6.33,23.53,23.53,0,0,0,5.3,5.47c.06,0,.06-.06,0-.09C201.62,161.94,200.93,160.87,200.18,159.84Zm6.1-3.45a36.39,36.39,0,0,1-5.68-8.18,30.1,30.1,0,0,1-1.68-4.41c-.46-1.58-.77-3.19-1.22-4.78,0-.06-.1-.14-.13,0a11.89,11.89,0,0,0,.27,5.13,22.45,22.45,0,0,0,1.73,4.83,19.27,19.27,0,0,0,6.59,7.67C206.32,156.71,206.38,156.5,206.28,156.39Z" style="fill:#e0e0e0"></path></g><g id="freepik--speech-bubble--inject-15"><g id="freepik--speech-bubble--inject-15"><g id="freepik--speech-bubble--inject-15"><path d="M241.49,43.58A33.82,33.82,0,0,1,257,63.1l.92,3.78a33.9,33.9,0,0,1-65.28,17.51l-1.1-3.73a33.9,33.9,0,0,1,50-37.08Z" style="fill:#fff"></path><path d="M192.63,54.63A36.8,36.8,0,0,0,253,96.36l11.3,1.72a2.13,2.13,0,0,0,2-3.45l-7.18-8.9a36.8,36.8,0,0,0-66.42-31.1Zm48.81-11.08A33.84,33.84,0,0,1,257,63l.92,3.78a33.9,33.9,0,0,1-65.24,17.62l-1.11-3.72a33.9,33.9,0,0,1,49.91-37.17Z" style="fill:#455a64"></path></g><g id="freepik--Check--inject-15"><path d="M219.38,92.45a5.3,5.3,0,0,1-3.88-1.68L203.44,77.89a5.32,5.32,0,1,1,7.77-7.27L219,79l18.53-23.47a5.32,5.32,0,0,1,8.35,6.59L223.56,90.43a5.32,5.32,0,0,1-3.95,2Z" style="fill:#D6312E"></path></g></g></g></svg>
